<svg width="233" height="243" viewBox="0 0 233 243" fill="none" xmlns="http://www.w3.org/2000/svg">
<path d="M0 31C0 18.2975 10.2975 8 23 8H188C212.853 8 233 28.1472 233 53V197C233 221.853 212.853 242 188 242H45C20.1472 242 0 221.853 0 197V31Z" fill="#CCCBCB"/>
<path d="M0 40.5812C0 27.8786 10.2975 17.5812 23 17.5812H188C212.853 17.5812 233 37.7284 233 62.5812V197C233 221.853 212.853 242 188 242H45C20.1472 242 0 221.853 0 197V40.5812Z" fill="#AFACAC"/>
<path d="M96 23C96 10.2974 106.297 0 119 0H210C222.703 0 233 10.2975 233 23V55.5983C233 68.3009 222.703 78.5983 210 78.5983H119C106.297 78.5983 96 68.3008 96 55.5983V23Z" fill="#AFACAC"/>
<path d="M0 55.1382C0 42.4357 10.2975 32.1382 23 32.1382H188C212.853 32.1382 233 52.2854 233 77.1382V197C233 221.853 212.853 242 188 242H45C20.1472 242 0 221.853 0 197V55.1382Z" fill="#838181"/>
<path d="M108 35C108 22.2974 118.297 12 131 12H210C222.703 12 233 22.2974 233 35V68.4931C233 81.1956 222.703 91.4931 210 91.4931H131C118.297 91.4931 108 81.1956 108 68.4931V35Z" fill="#838181"/>
<path d="M0 75.365C0 62.6625 10.2975 52.365 23 52.365H188C212.853 52.365 233 72.5122 233 97.365V198C233 222.853 212.853 243 188 243H45C20.1472 243 0 222.853 0 198V75.365Z" fill="#5E5E5E"/>
<path d="M112 53C112 40.2975 122.297 30 135 30H210C222.703 30 233 40.2975 233 53V99C233 111.703 222.703 122 210 122H135C122.297 122 112 111.703 112 99V53Z" fill="#5E5E5E"/>
<path d="M102.388 193.12V160.48H70.3875V132H102.388V99.36H132.468V132H164.468V160.48H132.468V193.12H102.388Z" fill="#D9D9D9"/>
</svg>
