<svg width="365" height="182" viewBox="0 0 365 182" fill="none" xmlns="http://www.w3.org/2000/svg">
<g clip-path="url(#clip0_78_248)">
<path d="M365 0H0V182H365V0Z" fill="#EABA8C"/>
<path d="M54 121V57H72.6976C76.4232 57 79.4959 57.7709 81.9158 59.3125C84.3356 60.8333 86.1375 62.8854 87.3213 65.4687C88.5052 68.0313 89.0972 70.875 89.0972 74C89.0972 76.75 88.688 79.0209 87.8697 80.8125C87.0689 82.6042 86.0069 84.0209 84.6839 85.0626C83.3782 86.1042 81.9594 86.875 80.4273 87.375V88C82.0638 88.125 83.7089 88.8125 85.3629 90.0625C87.0167 91.3125 88.4008 93.1041 89.515 95.4375C90.6291 97.7709 91.1862 100.625 91.1862 104C91.1862 107.208 90.5769 110.094 89.3582 112.656C88.1396 115.219 86.2159 117.25 83.587 118.75C80.9583 120.25 77.5374 121 73.3243 121H54ZM60.4762 114.125H73.3243C77.5547 114.125 80.5579 113.146 82.3337 111.187C84.1268 109.208 85.0233 106.813 85.0233 104C85.0233 101.833 84.562 99.8334 83.6394 97.9999C82.7166 96.1458 81.4023 94.6666 79.6961 93.5625C77.9899 92.4375 75.9705 91.875 73.6377 91.875H60.4762V114.125ZM60.4762 85.125H72.4887C74.4385 85.125 76.1968 84.6667 77.7637 83.75C79.348 82.8334 80.6013 81.5417 81.5241 79.875C82.4641 78.2084 82.9342 76.25 82.9342 74C82.9342 71.1875 82.116 68.8021 80.4795 66.8438C78.8431 64.8646 76.2491 63.8751 72.6976 63.8751H60.4762V85.125ZM104.021 121H97.2316L116.869 57H123.554L143.192 121H136.402L120.421 67.125H120.003L104.021 121ZM106.528 96H133.896V102.875H106.528V96ZM192.887 121V57H211.584C215.311 57 218.382 57.7709 220.803 59.3125C223.222 60.8333 225.025 62.8854 226.209 65.4687C227.392 68.0313 227.984 70.875 227.984 74C227.984 76.75 227.574 79.0209 226.757 80.8125C225.956 82.6042 224.893 84.0209 223.571 85.0626C222.265 86.1042 220.846 86.875 219.314 87.375V88C220.951 88.125 222.596 88.8125 224.25 90.0625C225.904 91.3125 227.288 93.1041 228.402 95.4375C229.516 97.7709 230.074 100.625 230.074 104C230.074 107.208 229.464 110.094 228.245 112.656C227.026 115.219 225.103 117.25 222.474 118.75C219.845 120.25 216.424 121 212.212 121H192.887ZM199.364 114.125H212.212C216.442 114.125 219.444 113.146 221.221 111.187C223.014 109.208 223.91 106.813 223.91 104C223.91 101.833 223.449 99.8334 222.527 97.9999C221.603 96.1458 220.289 94.6666 218.583 93.5625C216.877 92.4375 214.858 91.875 212.525 91.875H199.364V114.125ZM199.364 85.125H211.375C213.325 85.125 215.084 84.6667 216.651 83.75C218.235 82.8334 219.489 81.5417 220.411 79.875C221.351 78.2084 221.821 76.25 221.821 74C221.821 71.1875 221.003 68.8021 219.367 66.8438C217.73 64.8646 215.136 63.8751 211.584 63.8751H199.364V85.125ZM240.714 121V57H272.992V63.8751H247.191V85.5001H271.32V92.375H247.191V114.125H273.409V121H240.714ZM284.664 121V57H302.735C306.913 57 310.343 57.8542 313.024 59.5626C315.705 61.25 317.69 63.573 318.978 66.5313C320.267 69.4896 320.91 72.8542 320.91 76.625C320.91 80.3958 320.267 83.7395 318.978 86.6562C317.69 89.5729 315.714 91.8646 313.05 93.5313C310.386 95.177 306.983 96 302.839 96H288.216V89.0001H302.63C305.486 89.0001 307.784 88.5 309.525 87.5C311.283 86.5 312.554 85.0833 313.337 83.25C314.138 81.3959 314.539 79.1876 314.539 76.625C314.539 74.0626 314.138 71.823 313.337 69.9062C312.537 67.9896 311.257 66.5104 309.499 65.4687C307.74 64.4062 305.416 63.8751 302.526 63.8751H291.141V121H284.664ZM309.838 92.25L323 121H315.478L302.526 92.25H309.838Z" fill="black"/>
<path d="M54 121V57H72.6976C76.4232 57 79.4959 57.7709 81.9158 59.3125C84.3356 60.8333 86.1375 62.8854 87.3213 65.4687C88.5052 68.0313 89.0972 70.875 89.0972 74C89.0972 76.75 88.688 79.0209 87.8697 80.8125C87.0689 82.6042 86.0069 84.0209 84.6839 85.0626C83.3782 86.1042 81.9594 86.875 80.4273 87.375V88C82.0638 88.125 83.7089 88.8125 85.3629 90.0625C87.0167 91.3125 88.4008 93.1041 89.515 95.4375C90.6291 97.7709 91.1862 100.625 91.1862 104C91.1862 107.208 90.5769 110.094 89.3582 112.656C88.1396 115.219 86.2159 117.25 83.587 118.75C80.9583 120.25 77.5374 121 73.3243 121H54ZM60.4762 114.125H73.3243C77.5547 114.125 80.5579 113.146 82.3337 111.187C84.1268 109.208 85.0233 106.813 85.0233 104C85.0233 101.833 84.562 99.8334 83.6394 97.9999C82.7166 96.1458 81.4023 94.6666 79.6961 93.5625C77.9899 92.4375 75.9705 91.875 73.6377 91.875H60.4762V114.125ZM60.4762 85.125H72.4887C74.4385 85.125 76.1968 84.6667 77.7637 83.75C79.348 82.8334 80.6013 81.5417 81.5241 79.875C82.4641 78.2084 82.9342 76.25 82.9342 74C82.9342 71.1875 82.116 68.8021 80.4795 66.8438C78.8431 64.8646 76.2491 63.8751 72.6976 63.8751H60.4762V85.125ZM104.021 121H97.2316L116.869 57H123.554L143.192 121H136.402L120.421 67.125H120.003L104.021 121ZM106.528 96H133.896V102.875H106.528V96ZM192.887 121V57H211.584C215.311 57 218.382 57.7709 220.803 59.3125C223.222 60.8333 225.025 62.8854 226.209 65.4687C227.392 68.0313 227.984 70.875 227.984 74C227.984 76.75 227.574 79.0209 226.757 80.8125C225.956 82.6042 224.893 84.0209 223.571 85.0626C222.265 86.1042 220.846 86.875 219.314 87.375V88C220.951 88.125 222.596 88.8125 224.25 90.0625C225.904 91.3125 227.288 93.1041 228.402 95.4375C229.516 97.7709 230.074 100.625 230.074 104C230.074 107.208 229.464 110.094 228.245 112.656C227.026 115.219 225.103 117.25 222.474 118.75C219.845 120.25 216.424 121 212.212 121H192.887ZM199.364 114.125H212.212C216.442 114.125 219.444 113.146 221.221 111.187C223.014 109.208 223.91 106.813 223.91 104C223.91 101.833 223.449 99.8334 222.527 97.9999C221.603 96.1458 220.289 94.6666 218.583 93.5625C216.877 92.4375 214.858 91.875 212.525 91.875H199.364V114.125ZM199.364 85.125H211.375C213.325 85.125 215.084 84.6667 216.651 83.75C218.235 82.8334 219.489 81.5417 220.411 79.875C221.351 78.2084 221.821 76.25 221.821 74C221.821 71.1875 221.003 68.8021 219.367 66.8438C217.73 64.8646 215.136 63.8751 211.584 63.8751H199.364V85.125ZM240.714 121V57H272.992V63.8751H247.191V85.5001H271.32V92.375H247.191V114.125H273.409V121H240.714ZM284.664 121V57H302.735C306.913 57 310.343 57.8542 313.024 59.5626C315.705 61.25 317.69 63.573 318.978 66.5313C320.267 69.4896 320.91 72.8542 320.91 76.625C320.91 80.3958 320.267 83.7395 318.978 86.6562C317.69 89.5729 315.714 91.8646 313.05 93.5313C310.386 95.177 306.983 96 302.839 96H288.216V89.0001H302.63C305.486 89.0001 307.784 88.5 309.525 87.5C311.283 86.5 312.554 85.0833 313.337 83.25C314.138 81.3959 314.539 79.1876 314.539 76.625C314.539 74.0626 314.138 71.823 313.337 69.9062C312.537 67.9896 311.257 66.5104 309.499 65.4687C307.74 64.4062 305.416 63.8751 302.526 63.8751H291.141V121H284.664ZM309.838 92.25L323 121H315.478L302.526 92.25H309.838Z" fill="black"/>
<path d="M159 81.6973C160.381 80.8841 162.045 80.781 163.896 81.3941C165.748 82.0073 167.751 83.3245 169.792 85.2707C171.831 87.2168 173.869 89.7538 175.786 92.7368C177.704 95.7197 179.466 99.0902 180.969 102.656C182.474 106.221 183.69 109.912 184.551 113.517C185.412 117.123 185.899 120.572 185.986 123.668C186.073 126.765 185.757 129.447 185.056 131.563C184.355 133.679 183.284 135.187 181.903 136L170.452 108.849L159 81.6973Z" fill="#64533F"/>
<path d="M120.341 120C119.355 118.577 118.905 116.675 119.017 114.402C119.128 112.129 119.798 109.53 120.989 106.753C122.18 103.977 123.869 101.076 125.958 98.2185C128.047 95.3604 130.497 92.6007 133.167 90.0965C135.836 87.5925 138.674 85.3932 141.518 83.6242C144.362 81.8552 147.155 80.5513 149.74 79.7868C152.325 79.0223 154.649 78.8122 156.582 79.1685C158.514 79.5248 160.015 80.4405 161 81.8634L140.671 100.932L120.341 120Z" fill="#64533F"/>
<path d="M158.239 81C159.937 79.1249 161.316 76.9058 162.301 74.4697C163.285 72.0336 163.854 69.4282 163.975 66.802C164.097 64.1759 163.769 61.5805 163.008 59.1642C162.248 56.7479 161.072 54.5579 159.546 52.7191C158.02 50.8804 156.174 49.4291 154.115 48.4479C152.055 47.4668 149.822 46.9751 147.543 47.001C145.264 47.0268 142.983 47.5695 140.831 48.5983C138.679 49.6272 136.697 51.1218 135 52.9971L138.638 57.3813C139.804 56.0934 141.165 55.0666 142.643 54.36C144.122 53.6534 145.688 53.2804 147.254 53.2628C148.819 53.245 150.353 53.5827 151.768 54.2567C153.183 54.9306 154.45 55.9274 155.498 57.1904C156.546 58.4534 157.355 59.9576 157.877 61.6174C158.399 63.2771 158.624 65.0598 158.541 66.8636C158.457 68.6673 158.067 70.457 157.39 72.1303C156.714 73.8036 155.767 75.3277 154.6 76.6158L158.239 81Z" fill="black"/>
<path d="M179.602 52L180.239 52.7519L181.274 54.4749L183 57.1378L158.744 81L155 75.7138L179.602 52Z" fill="black"/>
<path d="M158 81.0291C159.606 82.9276 161.474 84.4319 163.498 85.4564C165.521 86.4809 167.661 87.0053 169.793 87C171.926 86.9944 174.009 86.4592 175.925 85.4248C177.842 84.3903 179.553 82.8768 180.963 80.9706C182.371 79.0646 183.449 76.8032 184.137 74.3158C184.823 71.8283 185.105 69.1635 184.965 66.4732C184.825 63.7831 184.267 61.1204 183.322 58.637C182.377 56.1537 181.063 53.8985 179.456 52L176.257 56.3287C177.384 57.6609 178.306 59.2436 178.969 60.9863C179.633 62.729 180.025 64.5977 180.123 66.4856C180.221 68.3735 180.024 70.2437 179.541 71.9893C179.06 73.735 178.302 75.3218 177.314 76.6595C176.325 77.9972 175.124 79.0594 173.779 79.7854C172.435 80.5114 170.972 80.8869 169.475 80.8907C167.979 80.8946 166.477 80.5265 165.058 79.8076C163.638 79.0886 162.327 78.0329 161.199 76.7006L158 81.0291Z" fill="black"/>
<path d="M54 121V57H72.6976C76.4232 57 79.4959 57.7709 81.9158 59.3125C84.3356 60.8333 86.1375 62.8854 87.3213 65.4687C88.5052 68.0313 89.0972 70.875 89.0972 74C89.0972 76.75 88.688 79.0209 87.8697 80.8125C87.0689 82.6042 86.0069 84.0209 84.6839 85.0626C83.3782 86.1042 81.9594 86.875 80.4273 87.375V88C82.0638 88.125 83.7089 88.8125 85.3629 90.0625C87.0167 91.3125 88.4008 93.1041 89.515 95.4375C90.6291 97.7709 91.1862 100.625 91.1862 104C91.1862 107.208 90.5769 110.094 89.3582 112.656C88.1396 115.219 86.2159 117.25 83.587 118.75C80.9583 120.25 77.5374 121 73.3243 121H54ZM60.4762 114.125H73.3243C77.5547 114.125 80.5579 113.146 82.3337 111.187C84.1268 109.208 85.0233 106.813 85.0233 104C85.0233 101.833 84.562 99.8334 83.6394 97.9999C82.7166 96.1458 81.4023 94.6666 79.6961 93.5625C77.9899 92.4375 75.9705 91.875 73.6377 91.875H60.4762V114.125ZM60.4762 85.125H72.4887C74.4385 85.125 76.1968 84.6667 77.7637 83.75C79.348 82.8334 80.6013 81.5417 81.5241 79.875C82.4641 78.2084 82.9342 76.25 82.9342 74C82.9342 71.1875 82.116 68.8021 80.4795 66.8438C78.8431 64.8646 76.2491 63.8751 72.6976 63.8751H60.4762V85.125ZM104.021 121H97.2316L116.869 57H123.554L143.192 121H136.402L120.421 67.125H120.003L104.021 121ZM106.528 96H133.896V102.875H106.528V96ZM192.887 121V57H211.584C215.311 57 218.382 57.7709 220.803 59.3125C223.222 60.8333 225.025 62.8854 226.209 65.4687C227.392 68.0313 227.984 70.875 227.984 74C227.984 76.75 227.574 79.0209 226.757 80.8125C225.956 82.6042 224.893 84.0209 223.571 85.0626C222.265 86.1042 220.846 86.875 219.314 87.375V88C220.951 88.125 222.596 88.8125 224.25 90.0625C225.904 91.3125 227.288 93.1041 228.402 95.4375C229.516 97.7709 230.074 100.625 230.074 104C230.074 107.208 229.464 110.094 228.245 112.656C227.026 115.219 225.103 117.25 222.474 118.75C219.845 120.25 216.424 121 212.212 121H192.887ZM199.364 114.125H212.212C216.442 114.125 219.444 113.146 221.221 111.187C223.014 109.208 223.91 106.813 223.91 104C223.91 101.833 223.449 99.8334 222.527 97.9999C221.603 96.1458 220.289 94.6666 218.583 93.5625C216.877 92.4375 214.858 91.875 212.525 91.875H199.364V114.125ZM199.364 85.125H211.375C213.325 85.125 215.084 84.6667 216.651 83.75C218.235 82.8334 219.489 81.5417 220.411 79.875C221.351 78.2084 221.821 76.25 221.821 74C221.821 71.1875 221.003 68.8021 219.367 66.8438C217.73 64.8646 215.136 63.8751 211.584 63.8751H199.364V85.125ZM240.714 121V57H272.992V63.8751H247.191V85.5001H271.32V92.375H247.191V114.125H273.409V121H240.714ZM284.664 121V57H302.735C306.913 57 310.343 57.8542 313.024 59.5626C315.705 61.25 317.69 63.573 318.978 66.5313C320.267 69.4896 320.91 72.8542 320.91 76.625C320.91 80.3958 320.267 83.7395 318.978 86.6562C317.69 89.5729 315.714 91.8646 313.05 93.5313C310.386 95.177 306.983 96 302.839 96H288.216V89.0001H302.63C305.486 89.0001 307.784 88.5 309.525 87.5C311.283 86.5 312.554 85.0833 313.337 83.25C314.138 81.3959 314.539 79.1876 314.539 76.625C314.539 74.0626 314.138 71.823 313.337 69.9062C312.537 67.9896 311.257 66.5104 309.499 65.4687C307.74 64.4062 305.416 63.8751 302.526 63.8751H291.141V121H284.664ZM309.838 92.25L323 121H315.478L302.526 92.25H309.838Z" fill="black"/>
<path d="M54 121V57H72.6976C76.4232 57 79.4959 57.7709 81.9158 59.3125C84.3356 60.8333 86.1375 62.8854 87.3213 65.4687C88.5052 68.0313 89.0972 70.875 89.0972 74C89.0972 76.75 88.688 79.0209 87.8697 80.8125C87.0689 82.6042 86.0069 84.0209 84.6839 85.0626C83.3782 86.1042 81.9594 86.875 80.4273 87.375V88C82.0638 88.125 83.7089 88.8125 85.3629 90.0625C87.0167 91.3125 88.4008 93.1041 89.515 95.4375C90.6291 97.7709 91.1862 100.625 91.1862 104C91.1862 107.208 90.5769 110.094 89.3582 112.656C88.1396 115.219 86.2159 117.25 83.587 118.75C80.9583 120.25 77.5374 121 73.3243 121H54ZM60.4762 114.125H73.3243C77.5547 114.125 80.5579 113.146 82.3337 111.187C84.1268 109.208 85.0233 106.813 85.0233 104C85.0233 101.833 84.562 99.8334 83.6394 97.9999C82.7166 96.1458 81.4023 94.6666 79.6961 93.5625C77.9899 92.4375 75.9705 91.875 73.6377 91.875H60.4762V114.125ZM60.4762 85.125H72.4887C74.4385 85.125 76.1968 84.6667 77.7637 83.75C79.348 82.8334 80.6013 81.5417 81.5241 79.875C82.4641 78.2084 82.9342 76.25 82.9342 74C82.9342 71.1875 82.116 68.8021 80.4795 66.8438C78.8431 64.8646 76.2491 63.8751 72.6976 63.8751H60.4762V85.125ZM104.021 121H97.2316L116.869 57H123.554L143.192 121H136.402L120.421 67.125H120.003L104.021 121ZM106.528 96H133.896V102.875H106.528V96ZM192.887 121V57H211.584C215.311 57 218.382 57.7709 220.803 59.3125C223.222 60.8333 225.025 62.8854 226.209 65.4687C227.392 68.0313 227.984 70.875 227.984 74C227.984 76.75 227.574 79.0209 226.757 80.8125C225.956 82.6042 224.893 84.0209 223.571 85.0626C222.265 86.1042 220.846 86.875 219.314 87.375V88C220.951 88.125 222.596 88.8125 224.25 90.0625C225.904 91.3125 227.288 93.1041 228.402 95.4375C229.516 97.7709 230.074 100.625 230.074 104C230.074 107.208 229.464 110.094 228.245 112.656C227.026 115.219 225.103 117.25 222.474 118.75C219.845 120.25 216.424 121 212.212 121H192.887ZM199.364 114.125H212.212C216.442 114.125 219.444 113.146 221.221 111.187C223.014 109.208 223.91 106.813 223.91 104C223.91 101.833 223.449 99.8334 222.527 97.9999C221.603 96.1458 220.289 94.6666 218.583 93.5625C216.877 92.4375 214.858 91.875 212.525 91.875H199.364V114.125ZM199.364 85.125H211.375C213.325 85.125 215.084 84.6667 216.651 83.75C218.235 82.8334 219.489 81.5417 220.411 79.875C221.351 78.2084 221.821 76.25 221.821 74C221.821 71.1875 221.003 68.8021 219.367 66.8438C217.73 64.8646 215.136 63.8751 211.584 63.8751H199.364V85.125ZM240.714 121V57H272.992V63.8751H247.191V85.5001H271.32V92.375H247.191V114.125H273.409V121H240.714ZM284.664 121V57H302.735C306.913 57 310.343 57.8542 313.024 59.5626C315.705 61.25 317.69 63.573 318.978 66.5313C320.267 69.4896 320.91 72.8542 320.91 76.625C320.91 80.3958 320.267 83.7395 318.978 86.6562C317.69 89.5729 315.714 91.8646 313.05 93.5313C310.386 95.177 306.983 96 302.839 96H288.216V89.0001H302.63C305.486 89.0001 307.784 88.5 309.525 87.5C311.283 86.5 312.554 85.0833 313.337 83.25C314.138 81.3959 314.539 79.1876 314.539 76.625C314.539 74.0626 314.138 71.823 313.337 69.9062C312.537 67.9896 311.257 66.5104 309.499 65.4687C307.74 64.4062 305.416 63.8751 302.526 63.8751H291.141V121H284.664ZM309.838 92.25L323 121H315.478L302.526 92.25H309.838Z" fill="black"/>
<path d="M159 81.6973C160.381 80.8841 162.045 80.781 163.896 81.3941C165.748 82.0073 167.751 83.3245 169.792 85.2707C171.831 87.2168 173.869 89.7538 175.786 92.7368C177.704 95.7197 179.466 99.0902 180.969 102.656C182.474 106.221 183.69 109.912 184.551 113.517C185.412 117.123 185.899 120.572 185.986 123.668C186.073 126.765 185.757 129.447 185.056 131.563C184.355 133.679 183.284 135.187 181.903 136L170.452 108.849L159 81.6973Z" fill="#64533F"/>
<path d="M120.341 120C119.355 118.577 118.905 116.675 119.017 114.402C119.128 112.129 119.798 109.53 120.989 106.753C122.18 103.977 123.869 101.076 125.958 98.2185C128.047 95.3604 130.497 92.6007 133.167 90.0965C135.836 87.5925 138.674 85.3932 141.518 83.6242C144.362 81.8552 147.155 80.5513 149.74 79.7868C152.325 79.0223 154.649 78.8122 156.582 79.1685C158.514 79.5248 160.015 80.4405 161 81.8634L140.671 100.932L120.341 120Z" fill="#64533F"/>
<path d="M158.239 81C159.937 79.1249 161.316 76.9058 162.301 74.4697C163.285 72.0336 163.854 69.4282 163.975 66.802C164.097 64.1759 163.769 61.5805 163.008 59.1642C162.248 56.7479 161.072 54.5579 159.546 52.7191C158.02 50.8804 156.174 49.4291 154.115 48.4479C152.055 47.4668 149.822 46.9751 147.543 47.001C145.264 47.0268 142.983 47.5695 140.831 48.5983C138.679 49.6272 136.697 51.1218 135 52.9971L138.638 57.3813C139.804 56.0934 141.165 55.0666 142.643 54.36C144.122 53.6534 145.688 53.2804 147.254 53.2628C148.819 53.245 150.353 53.5827 151.768 54.2567C153.183 54.9306 154.45 55.9274 155.498 57.1904C156.546 58.4534 157.355 59.9576 157.877 61.6174C158.399 63.2771 158.624 65.0598 158.541 66.8636C158.457 68.6673 158.067 70.457 157.39 72.1303C156.714 73.8036 155.767 75.3277 154.6 76.6158L158.239 81Z" fill="black"/>
<path d="M179.602 52L180.239 52.7519L181.274 54.4749L183 57.1378L158.744 81L155 75.7138L179.602 52Z" fill="black"/>
<path d="M158 81.0291C159.606 82.9276 161.474 84.4319 163.498 85.4564C165.521 86.4809 167.661 87.0053 169.793 87C171.926 86.9944 174.009 86.4592 175.925 85.4248C177.842 84.3903 179.553 82.8768 180.963 80.9706C182.371 79.0646 183.449 76.8032 184.137 74.3158C184.823 71.8283 185.105 69.1635 184.965 66.4732C184.825 63.7831 184.267 61.1204 183.322 58.637C182.377 56.1537 181.063 53.8985 179.456 52L176.257 56.3287C177.384 57.6609 178.306 59.2436 178.969 60.9863C179.633 62.729 180.025 64.5977 180.123 66.4856C180.221 68.3735 180.024 70.2437 179.541 71.9893C179.06 73.735 178.302 75.3218 177.314 76.6595C176.325 77.9972 175.124 79.0594 173.779 79.7854C172.435 80.5114 170.972 80.8869 169.475 80.8907C167.979 80.8946 166.477 80.5265 165.058 79.8076C163.638 79.0886 162.327 78.0329 161.199 76.7006L158 81.0291Z" fill="black"/>
</g>
<defs>
<clipPath id="clip0_78_248">
<rect width="365" height="182" fill="white"/>
</clipPath>
</defs>
</svg>
