<svg width="365" height="182" viewBox="0 0 365 182" fill="none" xmlns="http://www.w3.org/2000/svg">
<rect width="365" height="182" fill="#EABA8C"/>
<g filter="url(#filter0_d_7_126)">
<path d="M44.6341 136.61V141.488H39.7561V136.61H44.6341ZM44.6341 131.732V136.61H39.7561V131.732H44.6341ZM44.6341 126.854V131.732H39.7561V126.854H44.6341ZM44.6341 121.976V126.854H39.7561V121.976H44.6341ZM44.6341 117.098V121.976H39.7561V117.098H44.6341ZM44.6341 112.22V117.098H39.7561V112.22H44.6341ZM44.6341 107.341V112.22H39.7561V107.341H44.6341ZM44.6341 102.463V107.341H39.7561V102.463H44.6341ZM44.6341 97.5854V102.463H39.7561V97.5854H44.6341ZM44.6341 92.7073V97.5854H39.7561V92.7073H44.6341ZM44.6341 87.8293V92.7073H39.7561V87.8293H44.6341ZM49.5122 87.8293V92.7073H44.6341V87.8293H49.5122ZM49.5122 92.7073V97.5854H44.6341V92.7073H49.5122ZM49.5122 97.5854V102.463H44.6341V97.5854H49.5122ZM49.5122 102.463V107.341H44.6341V102.463H49.5122ZM49.5122 107.341V112.22H44.6341V107.341H49.5122ZM49.5122 112.22V117.098H44.6341V112.22H49.5122ZM49.5122 117.098V121.976H44.6341V117.098H49.5122ZM54.3902 121.976V126.854H49.5122V121.976H54.3902ZM54.3902 126.854V131.732H49.5122V126.854H54.3902ZM54.3902 131.732V136.61H49.5122V131.732H54.3902ZM54.3902 136.61V141.488H49.5122V136.61H54.3902ZM54.3902 141.488V146.366H49.5122V141.488H54.3902ZM54.3902 146.366V151.244H49.5122V146.366H54.3902ZM54.3902 151.244V156.122H49.5122V151.244H54.3902ZM64.1463 156.122V161H59.2683V156.122H64.1463ZM64.1463 151.244V156.122H59.2683V151.244H64.1463ZM64.1463 146.366V151.244H59.2683V146.366H64.1463ZM64.1463 141.488V146.366H59.2683V141.488H64.1463ZM64.1463 136.61V141.488H59.2683V136.61H64.1463ZM64.1463 131.732V136.61H59.2683V131.732H64.1463ZM64.1463 126.854V131.732H59.2683V126.854H64.1463ZM64.1463 121.976V126.854H59.2683V121.976H64.1463ZM59.2683 121.976V126.854H54.3902V121.976H59.2683ZM59.2683 117.098V121.976H54.3902V117.098H59.2683ZM59.2683 126.854V131.732H54.3902V126.854H59.2683ZM59.2683 131.732V136.61H54.3902V131.732H59.2683ZM59.2683 136.61V141.488H54.3902V136.61H59.2683ZM59.2683 141.488V146.366H54.3902V141.488H59.2683ZM59.2683 146.366V151.244H54.3902V146.366H59.2683ZM59.2683 151.244V156.122H54.3902V151.244H59.2683ZM49.5122 146.366V151.244H44.6341V146.366H49.5122ZM49.5122 141.488V146.366H44.6341V141.488H49.5122ZM49.5122 136.61V141.488H44.6341V136.61H49.5122ZM49.5122 131.732V136.61H44.6341V131.732H49.5122ZM49.5122 126.854V131.732H44.6341V126.854H49.5122ZM49.5122 121.976V126.854H44.6341V121.976H49.5122ZM44.6341 82.9512V87.8293H39.7561V82.9512H44.6341ZM59.2683 82.9512V87.8293H54.3902V82.9512H59.2683ZM59.2683 87.8293V92.7073H54.3902V87.8293H59.2683ZM59.2683 92.7073V97.5854H54.3902V92.7073H59.2683ZM59.2683 97.5854V102.463H54.3902V97.5854H59.2683ZM59.2683 102.463V107.341H54.3902V102.463H59.2683ZM64.1463 107.341V112.22H59.2683V107.341H64.1463ZM64.1463 112.22V117.098H59.2683V112.22H64.1463ZM64.1463 117.098V121.976H59.2683V117.098H64.1463ZM64.1463 102.463V107.341H59.2683V102.463H64.1463ZM64.1463 97.5854V102.463H59.2683V97.5854H64.1463ZM64.1463 92.7073V97.5854H59.2683V92.7073H64.1463ZM64.1463 87.8293V92.7073H59.2683V87.8293H64.1463ZM64.1463 82.9512V87.8293H59.2683V82.9512H64.1463ZM49.5122 82.9512V87.8293H44.6341V82.9512H49.5122ZM54.3902 82.9512V87.8293H49.5122V82.9512H54.3902ZM54.3902 87.8293V92.7073H49.5122V87.8293H54.3902ZM54.3902 92.7073V97.5854H49.5122V92.7073H54.3902ZM54.3902 97.5854V102.463H49.5122V97.5854H54.3902ZM54.3902 102.463V107.341H49.5122V102.463H54.3902ZM54.3902 107.341V112.22H49.5122V107.341H54.3902ZM54.3902 112.22V117.098H49.5122V112.22H54.3902ZM54.3902 117.098V121.976H49.5122V117.098H54.3902ZM59.2683 112.22V117.098H54.3902V112.22H59.2683ZM59.2683 107.341V112.22H54.3902V107.341H59.2683ZM103.171 156.122V161H98.2927V156.122H103.171ZM103.171 151.244V156.122H98.2927V151.244H103.171ZM103.171 146.366V151.244H98.2927V146.366H103.171ZM103.171 141.488V146.366H98.2927V141.488H103.171ZM103.171 136.61V141.488H98.2927V136.61H103.171ZM103.171 131.732V136.61H98.2927V131.732H103.171ZM103.171 126.854V131.732H98.2927V126.854H103.171ZM112.927 126.854V131.732H108.049V126.854H112.927ZM112.927 131.732V136.61H108.049V131.732H112.927ZM112.927 136.61V141.488H108.049V136.61H112.927ZM112.927 141.488V146.366H108.049V141.488H112.927ZM112.927 146.366V151.244H108.049V146.366H112.927ZM112.927 151.244V156.122H108.049V151.244H112.927ZM122.683 136.61V141.488H117.805V136.61H122.683ZM122.683 131.732V136.61H117.805V131.732H122.683ZM122.683 126.854V131.732H117.805V126.854H122.683ZM117.805 126.854V131.732H112.927V126.854H117.805ZM117.805 131.732V136.61H112.927V131.732H117.805ZM117.805 136.61V141.488H112.927V136.61H117.805ZM117.805 141.488V146.366H112.927V141.488H117.805ZM117.805 146.366V151.244H112.927V146.366H117.805ZM108.049 151.244V156.122H103.171V151.244H108.049ZM108.049 146.366V151.244H103.171V146.366H108.049ZM108.049 141.488V146.366H103.171V141.488H108.049ZM108.049 136.61V141.488H103.171V136.61H108.049ZM108.049 131.732V136.61H103.171V131.732H108.049ZM108.049 126.854V131.732H103.171V126.854H108.049ZM69.0244 156.122V161H64.1463V156.122H69.0244ZM73.9024 156.122V161H69.0244V156.122H73.9024ZM78.7805 156.122V161H73.9024V156.122H78.7805ZM83.6585 156.122V161H78.7805V156.122H83.6585ZM88.5366 156.122V161H83.6585V156.122H88.5366ZM98.2927 156.122V161H93.4146V156.122H98.2927ZM98.2927 151.244V156.122H93.4146V151.244H98.2927ZM88.5366 151.244V156.122H83.6585V151.244H88.5366ZM83.6585 151.244V156.122H78.7805V151.244H83.6585ZM78.7805 151.244V156.122H73.9024V151.244H78.7805ZM73.9024 151.244V156.122H69.0244V151.244H73.9024ZM69.0244 151.244V156.122H64.1463V151.244H69.0244ZM69.0244 146.366V151.244H64.1463V146.366H69.0244ZM73.9024 146.366V151.244H69.0244V146.366H73.9024ZM78.7805 146.366V151.244H73.9024V146.366H78.7805ZM83.6585 146.366V151.244H78.7805V146.366H83.6585ZM88.5366 146.366V151.244H83.6585V146.366H88.5366ZM98.2927 146.366V151.244H93.4146V146.366H98.2927ZM98.2927 141.488V146.366H93.4146V141.488H98.2927ZM88.5366 141.488V146.366H83.6585V141.488H88.5366ZM83.6585 141.488V146.366H78.7805V141.488H83.6585ZM78.7805 141.488V146.366H73.9024V141.488H78.7805ZM73.9024 141.488V146.366H69.0244V141.488H73.9024ZM69.0244 141.488V146.366H64.1463V141.488H69.0244ZM69.0244 136.61V141.488H64.1463V136.61H69.0244ZM98.2927 136.61V141.488H93.4146V136.61H98.2927ZM117.805 63.439V58.561H122.683V63.439H117.805ZM117.805 68.3171V63.439H122.683V68.3171H117.805ZM117.805 73.1951V68.3171H122.683V73.1951H117.805ZM108.049 73.1951V68.3171H112.927V73.1951H108.049ZM108.049 68.3171V63.439H112.927V68.3171H108.049ZM108.049 63.439V58.561H112.927V63.439H108.049ZM108.049 58.561V53.6829H112.927V58.561H108.049ZM108.049 53.6829V48.8049H112.927V53.6829H108.049ZM108.049 48.8049V43.9268H112.927V48.8049H108.049ZM98.2927 43.9268V39.0488H103.171V43.9268H98.2927ZM98.2927 48.8049V43.9268H103.171V48.8049H98.2927ZM98.2927 53.6829V48.8049H103.171V53.6829H98.2927ZM98.2927 58.561V53.6829H103.171V58.561H98.2927ZM98.2927 63.439V58.561H103.171V63.439H98.2927ZM98.2927 68.3171V63.439H103.171V68.3171H98.2927ZM98.2927 73.1951V68.3171H103.171V73.1951H98.2927ZM103.171 73.1951V68.3171H108.049V73.1951H103.171ZM103.171 68.3171V63.439H108.049V68.3171H103.171ZM103.171 63.439V58.561H108.049V63.439H103.171ZM103.171 58.561V53.6829H108.049V58.561H103.171ZM103.171 53.6829V48.8049H108.049V53.6829H103.171ZM103.171 48.8049V43.9268H108.049V48.8049H103.171ZM112.927 53.6829V48.8049H117.805V53.6829H112.927ZM112.927 58.561V53.6829H117.805V58.561H112.927ZM112.927 63.439V58.561H117.805V63.439H112.927ZM112.927 68.3171V63.439H117.805V68.3171H112.927ZM112.927 73.1951V68.3171H117.805V73.1951H112.927ZM59.2683 43.9268V39.0488H64.1463V43.9268H59.2683ZM59.2683 48.8049V43.9268H64.1463V48.8049H59.2683ZM59.2683 53.6829V48.8049H64.1463V53.6829H59.2683ZM59.2683 58.561V53.6829H64.1463V58.561H59.2683ZM59.2683 63.439V58.561H64.1463V63.439H59.2683ZM59.2683 68.3171V63.439H64.1463V68.3171H59.2683ZM59.2683 73.1951V68.3171H64.1463V73.1951H59.2683ZM49.5122 73.1951V68.3171H54.3902V73.1951H49.5122ZM49.5122 68.3171V63.439H54.3902V68.3171H49.5122ZM49.5122 63.439V58.561H54.3902V63.439H49.5122ZM49.5122 58.561V53.6829H54.3902V58.561H49.5122ZM49.5122 53.6829V48.8049H54.3902V53.6829H49.5122ZM49.5122 48.8049V43.9268H54.3902V48.8049H49.5122ZM39.7561 63.439V58.561H44.6341V63.439H39.7561ZM39.7561 68.3171V63.439H44.6341V68.3171H39.7561ZM39.7561 73.1951V68.3171H44.6341V73.1951H39.7561ZM44.6341 73.1951V68.3171H49.5122V73.1951H44.6341ZM44.6341 68.3171V63.439H49.5122V68.3171H44.6341ZM44.6341 63.439V58.561H49.5122V63.439H44.6341ZM44.6341 58.561V53.6829H49.5122V58.561H44.6341ZM44.6341 53.6829V48.8049H49.5122V53.6829H44.6341ZM54.3902 48.8049V43.9268H59.2683V48.8049H54.3902ZM54.3902 53.6829V48.8049H59.2683V53.6829H54.3902ZM54.3902 58.561V53.6829H59.2683V58.561H54.3902ZM54.3902 63.439V58.561H59.2683V63.439H54.3902ZM54.3902 68.3171V63.439H59.2683V68.3171H54.3902ZM54.3902 73.1951V68.3171H59.2683V73.1951H54.3902ZM93.4146 43.9268V39.0488H98.2927V43.9268H93.4146ZM83.6585 43.9268V39.0488H88.5366V43.9268H83.6585ZM78.7805 43.9268V39.0488H83.6585V43.9268H78.7805ZM73.9024 43.9268V39.0488H78.7805V43.9268H73.9024ZM69.0244 43.9268V39.0488H73.9024V43.9268H69.0244ZM64.1463 43.9268V39.0488H69.0244V43.9268H64.1463ZM64.1463 48.8049V43.9268H69.0244V48.8049H64.1463ZM69.0244 48.8049V43.9268H73.9024V48.8049H69.0244ZM73.9024 48.8049V43.9268H78.7805V48.8049H73.9024ZM78.7805 48.8049V43.9268H83.6585V48.8049H78.7805ZM83.6585 48.8049V43.9268H88.5366V48.8049H83.6585ZM93.4146 48.8049V43.9268H98.2927V48.8049H93.4146ZM93.4146 53.6829V48.8049H98.2927V53.6829H93.4146ZM83.6585 53.6829V48.8049H88.5366V53.6829H83.6585ZM78.7805 53.6829V48.8049H83.6585V53.6829H78.7805ZM73.9024 53.6829V48.8049H78.7805V53.6829H73.9024ZM69.0244 53.6829V48.8049H73.9024V53.6829H69.0244ZM64.1463 53.6829V48.8049H69.0244V53.6829H64.1463ZM64.1463 58.561V53.6829H69.0244V58.561H64.1463ZM69.0244 58.561V53.6829H73.9024V58.561H69.0244ZM73.9024 58.561V53.6829H78.7805V58.561H73.9024ZM78.7805 58.561V53.6829H83.6585V58.561H78.7805ZM83.6585 58.561V53.6829H88.5366V58.561H83.6585ZM93.4146 58.561V53.6829H98.2927V58.561H93.4146ZM93.4146 63.439V58.561H98.2927V63.439H93.4146ZM64.1463 63.439V58.561H69.0244V63.439H64.1463ZM44.6341 78.0732V82.9512H39.7561V78.0732H44.6341ZM49.5122 78.0732V82.9512H44.6341V78.0732H49.5122ZM44.6341 73.1951V78.0732H39.7561V73.1951H44.6341ZM59.2683 73.1951V78.0732H54.3902V73.1951H59.2683ZM59.2683 78.0732V82.9512H54.3902V78.0732H59.2683ZM64.1463 78.0732V82.9512H59.2683V78.0732H64.1463ZM64.1463 73.1951V78.0732H59.2683V73.1951H64.1463ZM49.5122 73.1951V78.0732H44.6341V73.1951H49.5122ZM54.3902 73.1951V78.0732H49.5122V73.1951H54.3902ZM54.3902 78.0732V82.9512H49.5122V78.0732H54.3902ZM73.9024 136.61V141.488H69.0244V136.61H73.9024ZM78.7805 136.61V141.488H73.9024V136.61H78.7805ZM83.6585 136.61V141.488H78.7805V136.61H83.6585ZM88.5366 136.61V141.488H83.6585V136.61H88.5366ZM98.2927 131.732V136.61H93.4146V131.732H98.2927ZM69.0244 131.732V136.61H64.1463V131.732H69.0244ZM103.171 121.976V126.854H98.2927V121.976H103.171ZM108.049 121.976V126.854H103.171V121.976H108.049ZM112.927 121.976V126.854H108.049V121.976H112.927ZM117.805 121.976V126.854H112.927V121.976H117.805ZM122.683 121.976V126.854H117.805V121.976H122.683ZM69.0244 63.439V68.3171H64.1463V63.439H69.0244ZM73.9024 58.561V63.439H69.0244V58.561H73.9024ZM78.7805 58.561V63.439H73.9024V58.561H78.7805ZM83.6585 58.561V63.439H78.7805V58.561H83.6585ZM88.5366 58.561V63.439H83.6585V58.561H88.5366ZM98.2927 63.439V68.3171H93.4146V63.439H98.2927ZM103.171 73.1951V78.0732H98.2927V73.1951H103.171ZM108.049 73.1951V78.0732H103.171V73.1951H108.049ZM112.927 73.1951V78.0732H108.049V73.1951H112.927ZM117.805 73.1951V78.0732H112.927V73.1951H117.805ZM122.683 73.1951V78.0732H117.805V73.1951H122.683ZM93.4146 39.0488V43.9268H88.5366V39.0488H93.4146ZM93.4146 43.9268V48.8049H88.5366V43.9268H93.4146ZM93.4146 48.8049V53.6829H88.5366V48.8049H93.4146ZM93.4146 53.6829V58.561H88.5366V53.6829H93.4146ZM93.4146 58.561V63.439H88.5366V58.561H93.4146ZM93.4146 136.61V141.488H88.5366V136.61H93.4146ZM93.4146 141.488V146.366H88.5366V141.488H93.4146ZM93.4146 146.366V151.244H88.5366V146.366H93.4146ZM93.4146 151.244V156.122H88.5366V151.244H93.4146ZM93.4146 156.122V161H88.5366V156.122H93.4146ZM146.978 136.61V141.488H142.1V136.61H146.978ZM146.978 131.732V136.61H142.1V131.732H146.978ZM146.978 126.854V131.732H142.1V126.854H146.978ZM146.978 121.976V126.854H142.1V121.976H146.978ZM146.978 87.8293V92.7073H142.1V87.8293H146.978ZM151.856 87.8293V92.7073H146.978V87.8293H151.856ZM151.856 92.7073V97.5854H146.978V92.7073H151.856ZM151.856 97.5854V102.463H146.978V97.5854H151.856ZM156.734 121.976V126.854H151.856V121.976H156.734ZM156.734 126.854V131.732H151.856V126.854H156.734ZM156.734 131.732V136.61H151.856V131.732H156.734ZM156.734 136.61V141.488H151.856V136.61H156.734ZM156.734 141.488V146.366H151.856V141.488H156.734ZM156.734 146.366V151.244H151.856V146.366H156.734ZM156.734 151.244V156.122H151.856V151.244H156.734ZM166.49 156.122V161H161.612V156.122H166.49ZM166.49 151.244V156.122H161.612V151.244H166.49ZM166.49 146.366V151.244H161.612V146.366H166.49ZM166.49 141.488V146.366H161.612V141.488H166.49ZM166.49 136.61V141.488H161.612V136.61H166.49ZM166.49 131.732V136.61H161.612V131.732H166.49ZM166.49 126.854V131.732H161.612V126.854H166.49ZM166.49 121.976V126.854H161.612V121.976H166.49ZM161.612 121.976V126.854H156.734V121.976H161.612ZM161.612 126.854V131.732H156.734V126.854H161.612ZM161.612 131.732V136.61H156.734V131.732H161.612ZM161.612 136.61V141.488H156.734V136.61H161.612ZM161.612 141.488V146.366H156.734V141.488H161.612ZM161.612 146.366V151.244H156.734V146.366H161.612ZM161.612 151.244V156.122H156.734V151.244H161.612ZM151.856 146.366V151.244H146.978V146.366H151.856ZM151.856 141.488V146.366H146.978V141.488H151.856ZM151.856 136.61V141.488H146.978V136.61H151.856ZM151.856 131.732V136.61H146.978V131.732H151.856ZM151.856 126.854V131.732H146.978V126.854H151.856ZM151.856 121.976V126.854H146.978V121.976H151.856ZM146.978 82.9512V87.8293H142.1V82.9512H146.978ZM161.612 82.9512V87.8293H156.734V82.9512H161.612ZM161.612 87.8293V92.7073H156.734V87.8293H161.612ZM161.612 92.7073V97.5854H156.734V92.7073H161.612ZM161.612 97.5854V102.463H156.734V97.5854H161.612ZM161.612 102.463V107.341H156.734V102.463H161.612ZM166.49 107.341V112.22H161.612V107.341H166.49ZM166.49 102.463V107.341H161.612V102.463H166.49ZM166.49 97.5854V102.463H161.612V97.5854H166.49ZM166.49 92.7073V97.5854H161.612V92.7073H166.49ZM166.49 87.8293V92.7073H161.612V87.8293H166.49ZM166.49 82.9512V87.8293H161.612V82.9512H166.49ZM151.856 82.9512V87.8293H146.978V82.9512H151.856ZM156.734 82.9512V87.8293H151.856V82.9512H156.734ZM156.734 87.8293V92.7073H151.856V87.8293H156.734ZM156.734 92.7073V97.5854H151.856V92.7073H156.734ZM156.734 97.5854V102.463H151.856V97.5854H156.734ZM156.734 102.463V107.341H151.856V102.463H156.734ZM205.514 156.122V161H200.636V156.122H205.514ZM205.514 151.244V156.122H200.636V151.244H205.514ZM205.514 146.366V151.244H200.636V146.366H205.514ZM205.514 141.488V146.366H200.636V141.488H205.514ZM205.514 136.61V141.488H200.636V136.61H205.514ZM205.514 131.732V136.61H200.636V131.732H205.514ZM205.514 126.854V131.732H200.636V126.854H205.514ZM205.514 121.976V126.854H200.636V121.976H205.514ZM205.514 117.098V121.976H200.636V117.098H205.514ZM205.514 112.22V117.098H200.636V112.22H205.514ZM205.514 107.341V112.22H200.636V107.341H205.514ZM205.514 102.463V107.341H200.636V102.463H205.514ZM205.514 97.5854V102.463H200.636V97.5854H205.514ZM205.514 92.7073V97.5854H200.636V92.7073H205.514ZM205.514 87.8293V92.7073H200.636V87.8293H205.514ZM210.393 92.7073V97.5854H205.514V92.7073H210.393ZM210.393 97.5854V102.463H205.514V97.5854H210.393ZM210.393 102.463V107.341H205.514V102.463H210.393ZM210.393 107.341V112.22H205.514V107.341H210.393ZM210.393 112.22V117.098H205.514V112.22H210.393ZM210.393 117.098V121.976H205.514V117.098H210.393ZM215.271 121.976V126.854H210.393V121.976H215.271ZM215.271 126.854V131.732H210.393V126.854H215.271ZM215.271 131.732V136.61H210.393V131.732H215.271ZM215.271 136.61V141.488H210.393V136.61H215.271ZM215.271 141.488V146.366H210.393V141.488H215.271ZM215.271 146.366V151.244H210.393V146.366H215.271ZM215.271 151.244V156.122H210.393V151.244H215.271ZM225.027 136.61V141.488H220.149V136.61H225.027ZM225.027 131.732V136.61H220.149V131.732H225.027ZM225.027 126.854V131.732H220.149V126.854H225.027ZM225.027 121.976V126.854H220.149V121.976H225.027ZM220.149 121.976V126.854H215.271V121.976H220.149ZM220.149 117.098V121.976H215.271V117.098H220.149ZM220.149 126.854V131.732H215.271V126.854H220.149ZM220.149 131.732V136.61H215.271V131.732H220.149ZM220.149 136.61V141.488H215.271V136.61H220.149ZM220.149 141.488V146.366H215.271V141.488H220.149ZM220.149 146.366V151.244H215.271V146.366H220.149ZM210.393 151.244V156.122H205.514V151.244H210.393ZM210.393 146.366V151.244H205.514V146.366H210.393ZM210.393 141.488V146.366H205.514V141.488H210.393ZM210.393 136.61V141.488H205.514V136.61H210.393ZM210.393 131.732V136.61H205.514V131.732H210.393ZM210.393 126.854V131.732H205.514V126.854H210.393ZM210.393 121.976V126.854H205.514V121.976H210.393ZM220.149 102.463V107.341H215.271V102.463H220.149ZM225.027 107.341V112.22H220.149V107.341H225.027ZM225.027 112.22V117.098H220.149V112.22H225.027ZM225.027 117.098V121.976H220.149V117.098H225.027ZM215.271 92.7073V97.5854H210.393V92.7073H215.271ZM215.271 97.5854V102.463H210.393V97.5854H215.271ZM215.271 102.463V107.341H210.393V102.463H215.271ZM215.271 107.341V112.22H210.393V107.341H215.271ZM215.271 112.22V117.098H210.393V112.22H215.271ZM215.271 117.098V121.976H210.393V117.098H215.271ZM220.149 112.22V117.098H215.271V112.22H220.149ZM220.149 107.341V112.22H215.271V107.341H220.149ZM171.368 156.122V161H166.49V156.122H171.368ZM176.246 156.122V161H171.368V156.122H176.246ZM181.124 156.122V161H176.246V156.122H181.124ZM190.88 156.122V161H186.002V156.122H190.88ZM195.758 156.122V161H190.88V156.122H195.758ZM200.636 156.122V161H195.758V156.122H200.636ZM200.636 151.244V156.122H195.758V151.244H200.636ZM195.758 151.244V156.122H190.88V151.244H195.758ZM190.88 151.244V156.122H186.002V151.244H190.88ZM181.124 151.244V156.122H176.246V151.244H181.124ZM176.246 151.244V156.122H171.368V151.244H176.246ZM171.368 151.244V156.122H166.49V151.244H171.368ZM171.368 146.366V151.244H166.49V146.366H171.368ZM176.246 146.366V151.244H171.368V146.366H176.246ZM181.124 146.366V151.244H176.246V146.366H181.124ZM190.88 146.366V151.244H186.002V146.366H190.88ZM195.758 146.366V151.244H190.88V146.366H195.758ZM200.636 146.366V151.244H195.758V146.366H200.636ZM200.636 141.488V146.366H195.758V141.488H200.636ZM195.758 141.488V146.366H190.88V141.488H195.758ZM190.88 141.488V146.366H186.002V141.488H190.88ZM181.124 141.488V146.366H176.246V141.488H181.124ZM176.246 141.488V146.366H171.368V141.488H176.246ZM171.368 141.488V146.366H166.49V141.488H171.368ZM171.368 136.61V141.488H166.49V136.61H171.368ZM200.636 136.61V141.488H195.758V136.61H200.636ZM220.149 63.439V58.561H225.027V63.439H220.149ZM220.149 68.3171V63.439H225.027V68.3171H220.149ZM220.149 73.1951V68.3171H225.027V73.1951H220.149ZM210.393 73.1951V68.3171H215.271V73.1951H210.393ZM210.393 68.3171V63.439H215.271V68.3171H210.393ZM210.393 63.439V58.561H215.271V63.439H210.393ZM210.393 58.561V53.6829H215.271V58.561H210.393ZM210.393 53.6829V48.8049H215.271V53.6829H210.393ZM210.393 48.8049V43.9268H215.271V48.8049H210.393ZM200.636 43.9268V39.0488H205.514V43.9268H200.636ZM200.636 48.8049V43.9268H205.514V48.8049H200.636ZM200.636 53.6829V48.8049H205.514V53.6829H200.636ZM200.636 58.561V53.6829H205.514V58.561H200.636ZM200.636 63.439V58.561H205.514V63.439H200.636ZM200.636 68.3171V63.439H205.514V68.3171H200.636ZM200.636 73.1951V68.3171H205.514V73.1951H200.636ZM205.514 73.1951V68.3171H210.393V73.1951H205.514ZM205.514 68.3171V63.439H210.393V68.3171H205.514ZM205.514 63.439V58.561H210.393V63.439H205.514ZM205.514 58.561V53.6829H210.393V58.561H205.514ZM205.514 53.6829V48.8049H210.393V53.6829H205.514ZM205.514 48.8049V43.9268H210.393V48.8049H205.514ZM215.271 53.6829V48.8049H220.149V53.6829H215.271ZM215.271 58.561V53.6829H220.149V58.561H215.271ZM215.271 63.439V58.561H220.149V63.439H215.271ZM215.271 68.3171V63.439H220.149V68.3171H215.271ZM215.271 73.1951V68.3171H220.149V73.1951H215.271ZM161.612 43.9268V39.0488H166.49V43.9268H161.612ZM161.612 48.8049V43.9268H166.49V48.8049H161.612ZM161.612 53.6829V48.8049H166.49V53.6829H161.612ZM161.612 58.561V53.6829H166.49V58.561H161.612ZM161.612 63.439V58.561H166.49V63.439H161.612ZM161.612 68.3171V63.439H166.49V68.3171H161.612ZM161.612 73.1951V68.3171H166.49V73.1951H161.612ZM151.856 73.1951V68.3171H156.734V73.1951H151.856ZM151.856 68.3171V63.439H156.734V68.3171H151.856ZM151.856 63.439V58.561H156.734V63.439H151.856ZM151.856 58.561V53.6829H156.734V58.561H151.856ZM151.856 53.6829V48.8049H156.734V53.6829H151.856ZM151.856 48.8049V43.9268H156.734V48.8049H151.856ZM142.1 63.439V58.561H146.978V63.439H142.1ZM142.1 68.3171V63.439H146.978V68.3171H142.1ZM142.1 73.1951V68.3171H146.978V73.1951H142.1ZM146.978 73.1951V68.3171H151.856V73.1951H146.978ZM146.978 68.3171V63.439H151.856V68.3171H146.978ZM146.978 63.439V58.561H151.856V63.439H146.978ZM146.978 58.561V53.6829H151.856V58.561H146.978ZM146.978 53.6829V48.8049H151.856V53.6829H146.978ZM156.734 48.8049V43.9268H161.612V48.8049H156.734ZM156.734 53.6829V48.8049H161.612V53.6829H156.734ZM156.734 58.561V53.6829H161.612V58.561H156.734ZM156.734 63.439V58.561H161.612V63.439H156.734ZM156.734 68.3171V63.439H161.612V68.3171H156.734ZM156.734 73.1951V68.3171H161.612V73.1951H156.734ZM195.758 43.9268V39.0488H200.636V43.9268H195.758ZM190.88 43.9268V39.0488H195.758V43.9268H190.88ZM186.002 43.9268V39.0488H190.88V43.9268H186.002ZM176.246 43.9268V39.0488H181.124V43.9268H176.246ZM171.368 43.9268V39.0488H176.246V43.9268H171.368ZM166.49 43.9268V39.0488H171.368V43.9268H166.49ZM166.49 48.8049V43.9268H171.368V48.8049H166.49ZM171.368 48.8049V43.9268H176.246V48.8049H171.368ZM176.246 48.8049V43.9268H181.124V48.8049H176.246ZM186.002 48.8049V43.9268H190.88V48.8049H186.002ZM190.88 48.8049V43.9268H195.758V48.8049H190.88ZM195.758 48.8049V43.9268H200.636V48.8049H195.758ZM195.758 53.6829V48.8049H200.636V53.6829H195.758ZM190.88 53.6829V48.8049H195.758V53.6829H190.88ZM186.002 53.6829V48.8049H190.88V53.6829H186.002ZM176.246 53.6829V48.8049H181.124V53.6829H176.246ZM171.368 53.6829V48.8049H176.246V53.6829H171.368ZM166.49 53.6829V48.8049H171.368V53.6829H166.49ZM166.49 58.561V53.6829H171.368V58.561H166.49ZM171.368 58.561V53.6829H176.246V58.561H171.368ZM176.246 58.561V53.6829H181.124V58.561H176.246ZM186.002 58.561V53.6829H190.88V58.561H186.002ZM190.88 58.561V53.6829H195.758V58.561H190.88ZM195.758 58.561V53.6829H200.636V58.561H195.758ZM195.758 63.439V58.561H200.636V63.439H195.758ZM166.49 63.439V58.561H171.368V63.439H166.49ZM146.978 78.0732V82.9512H142.1V78.0732H146.978ZM151.856 78.0732V82.9512H146.978V78.0732H151.856ZM146.978 73.1951V78.0732H142.1V73.1951H146.978ZM161.612 73.1951V78.0732H156.734V73.1951H161.612ZM161.612 78.0732V82.9512H156.734V78.0732H161.612ZM166.49 78.0732V82.9512H161.612V78.0732H166.49ZM166.49 73.1951V78.0732H161.612V73.1951H166.49ZM151.856 73.1951V78.0732H146.978V73.1951H151.856ZM156.734 73.1951V78.0732H151.856V73.1951H156.734ZM156.734 78.0732V82.9512H151.856V78.0732H156.734ZM176.246 136.61V141.488H171.368V136.61H176.246ZM181.124 136.61V141.488H176.246V136.61H181.124ZM190.88 136.61V141.488H186.002V136.61H190.88ZM195.758 136.61V141.488H190.88V136.61H195.758ZM200.636 131.732V136.61H195.758V131.732H200.636ZM171.368 131.732V136.61H166.49V131.732H171.368ZM176.246 58.561V63.439H171.368V58.561H176.246ZM181.124 58.561V63.439H176.246V58.561H181.124ZM190.88 58.561V63.439H186.002V58.561H190.88ZM195.758 58.561V63.439H190.88V58.561H195.758ZM200.636 63.439V68.3171H195.758V63.439H200.636ZM171.368 63.439V68.3171H166.49V63.439H171.368ZM181.124 97.5854V102.463H176.246V97.5854H181.124ZM190.88 97.5854V102.463H186.002V97.5854H190.88ZM195.758 97.5854V102.463H190.88V97.5854H195.758ZM200.636 97.5854V102.463H195.758V97.5854H200.636ZM200.636 102.463V107.341H195.758V102.463H200.636ZM195.758 102.463V107.341H190.88V102.463H195.758ZM190.88 102.463V107.341H186.002V102.463H190.88ZM181.124 102.463V107.341H176.246V102.463H181.124ZM181.124 87.8293V92.7073H176.246V87.8293H181.124ZM190.88 87.8293V92.7073H186.002V87.8293H190.88ZM195.758 87.8293V92.7073H190.88V87.8293H195.758ZM200.636 87.8293V92.7073H195.758V87.8293H200.636ZM200.636 92.7073V97.5854H195.758V92.7073H200.636ZM195.758 92.7073V97.5854H190.88V92.7073H195.758ZM190.88 92.7073V97.5854H186.002V92.7073H190.88ZM181.124 92.7073V97.5854H176.246V92.7073H181.124ZM181.124 107.341V112.22H176.246V107.341H181.124ZM190.88 107.341V112.22H186.002V107.341H190.88ZM195.758 107.341V112.22H190.88V107.341H195.758ZM200.636 107.341V112.22H195.758V107.341H200.636ZM220.149 97.5854V102.463H215.271V97.5854H220.149ZM200.636 112.22V117.098H195.758V112.22H200.636ZM171.368 87.8293V92.7073H166.49V87.8293H171.368ZM176.246 87.8293V92.7073H171.368V87.8293H176.246ZM171.368 82.9512V87.8293H166.49V82.9512H171.368ZM176.246 92.7073V97.5854H171.368V92.7073H176.246ZM176.246 97.5854V102.463H171.368V97.5854H176.246ZM176.246 102.463V107.341H171.368V102.463H176.246ZM176.246 107.341V112.22H171.368V107.341H176.246ZM171.368 107.341V112.22H166.49V107.341H171.368ZM171.368 102.463V107.341H166.49V102.463H171.368ZM171.368 97.5854V102.463H166.49V97.5854H171.368ZM171.368 92.7073V97.5854H166.49V92.7073H171.368ZM186.002 39.0488V43.9268H181.124V39.0488H186.002ZM186.002 43.9268V48.8049H181.124V43.9268H186.002ZM186.002 48.8049V53.6829H181.124V48.8049H186.002ZM186.002 53.6829V58.561H181.124V53.6829H186.002ZM186.002 58.561V63.439H181.124V58.561H186.002ZM186.002 87.8293V92.7073H181.124V87.8293H186.002ZM186.002 92.7073V97.5854H181.124V92.7073H186.002ZM186.002 97.5854V102.463H181.124V97.5854H186.002ZM186.002 102.463V107.341H181.124V102.463H186.002ZM186.002 107.341V112.22H181.124V107.341H186.002ZM186.002 136.61V141.488H181.124V136.61H186.002ZM186.002 141.488V146.366H181.124V141.488H186.002ZM186.002 146.366V151.244H181.124V146.366H186.002ZM186.002 151.244V156.122H181.124V151.244H186.002ZM186.002 156.122V161H181.124V156.122H186.002ZM249.322 136.61V141.488H244.444V136.61H249.322ZM249.322 131.732V136.61H244.444V131.732H249.322ZM249.322 126.854V131.732H244.444V126.854H249.322ZM249.322 121.976V126.854H244.444V121.976H249.322ZM249.322 117.098V121.976H244.444V117.098H249.322ZM249.322 112.22V117.098H244.444V112.22H249.322ZM249.322 107.341V112.22H244.444V107.341H249.322ZM249.322 102.463V107.341H244.444V102.463H249.322ZM249.322 97.5854V102.463H244.444V97.5854H249.322ZM249.322 92.7073V97.5854H244.444V92.7073H249.322ZM249.322 87.8293V92.7073H244.444V87.8293H249.322ZM254.2 87.8293V92.7073H249.322V87.8293H254.2ZM254.2 92.7073V97.5854H249.322V92.7073H254.2ZM254.2 97.5854V102.463H249.322V97.5854H254.2ZM254.2 102.463V107.341H249.322V102.463H254.2ZM254.2 107.341V112.22H249.322V107.341H254.2ZM254.2 112.22V117.098H249.322V112.22H254.2ZM254.2 117.098V121.976H249.322V117.098H254.2ZM259.078 121.976V126.854H254.2V121.976H259.078ZM259.078 126.854V131.732H254.2V126.854H259.078ZM259.078 131.732V136.61H254.2V131.732H259.078ZM259.078 136.61V141.488H254.2V136.61H259.078ZM259.078 141.488V146.366H254.2V141.488H259.078ZM259.078 146.366V151.244H254.2V146.366H259.078ZM259.078 151.244V156.122H254.2V151.244H259.078ZM268.834 156.122V161H263.956V156.122H268.834ZM268.834 151.244V156.122H263.956V151.244H268.834ZM268.834 146.366V151.244H263.956V146.366H268.834ZM268.834 141.488V146.366H263.956V141.488H268.834ZM268.834 136.61V141.488H263.956V136.61H268.834ZM268.834 131.732V136.61H263.956V131.732H268.834ZM268.834 126.854V131.732H263.956V126.854H268.834ZM268.834 121.976V126.854H263.956V121.976H268.834ZM263.956 121.976V126.854H259.078V121.976H263.956ZM263.956 117.098V121.976H259.078V117.098H263.956ZM263.956 126.854V131.732H259.078V126.854H263.956ZM263.956 131.732V136.61H259.078V131.732H263.956ZM263.956 136.61V141.488H259.078V136.61H263.956ZM263.956 141.488V146.366H259.078V141.488H263.956ZM263.956 146.366V151.244H259.078V146.366H263.956ZM263.956 151.244V156.122H259.078V151.244H263.956ZM254.2 146.366V151.244H249.322V146.366H254.2ZM254.2 141.488V146.366H249.322V141.488H254.2ZM254.2 136.61V141.488H249.322V136.61H254.2ZM254.2 131.732V136.61H249.322V131.732H254.2ZM254.2 126.854V131.732H249.322V126.854H254.2ZM254.2 121.976V126.854H249.322V121.976H254.2ZM249.322 82.9512V87.8293H244.444V82.9512H249.322ZM263.956 82.9512V87.8293H259.078V82.9512H263.956ZM263.956 87.8293V92.7073H259.078V87.8293H263.956ZM263.956 92.7073V97.5854H259.078V92.7073H263.956ZM263.956 97.5854V102.463H259.078V97.5854H263.956ZM263.956 102.463V107.341H259.078V102.463H263.956ZM268.834 107.341V112.22H263.956V107.341H268.834ZM268.834 112.22V117.098H263.956V112.22H268.834ZM268.834 117.098V121.976H263.956V117.098H268.834ZM268.834 102.463V107.341H263.956V102.463H268.834ZM268.834 97.5854V102.463H263.956V97.5854H268.834ZM268.834 92.7073V97.5854H263.956V92.7073H268.834ZM268.834 87.8293V92.7073H263.956V87.8293H268.834ZM268.834 82.9512V87.8293H263.956V82.9512H268.834ZM254.2 82.9512V87.8293H249.322V82.9512H254.2ZM259.078 82.9512V87.8293H254.2V82.9512H259.078ZM259.078 87.8293V92.7073H254.2V87.8293H259.078ZM259.078 92.7073V97.5854H254.2V92.7073H259.078ZM259.078 97.5854V102.463H254.2V97.5854H259.078ZM259.078 102.463V107.341H254.2V102.463H259.078ZM259.078 107.341V112.22H254.2V107.341H259.078ZM259.078 112.22V117.098H254.2V112.22H259.078ZM259.078 117.098V121.976H254.2V117.098H259.078ZM263.956 112.22V117.098H259.078V112.22H263.956ZM263.956 107.341V112.22H259.078V107.341H263.956ZM307.858 156.122V161H302.98V156.122H307.858ZM307.858 151.244V156.122H302.98V151.244H307.858ZM307.858 146.366V151.244H302.98V146.366H307.858ZM307.858 141.488V146.366H302.98V141.488H307.858ZM307.858 136.61V141.488H302.98V136.61H307.858ZM307.858 131.732V136.61H302.98V131.732H307.858ZM307.858 126.854V131.732H302.98V126.854H307.858ZM317.614 126.854V131.732H312.736V126.854H317.614ZM317.614 131.732V136.61H312.736V131.732H317.614ZM317.614 136.61V141.488H312.736V136.61H317.614ZM317.614 141.488V146.366H312.736V141.488H317.614ZM317.614 146.366V151.244H312.736V146.366H317.614ZM317.614 151.244V156.122H312.736V151.244H317.614ZM327.37 136.61V141.488H322.492V136.61H327.37ZM327.37 131.732V136.61H322.492V131.732H327.37ZM327.37 126.854V131.732H322.492V126.854H327.37ZM322.492 126.854V131.732H317.614V126.854H322.492ZM322.492 131.732V136.61H317.614V131.732H322.492ZM322.492 136.61V141.488H317.614V136.61H322.492ZM322.492 141.488V146.366H317.614V141.488H322.492ZM322.492 146.366V151.244H317.614V146.366H322.492ZM312.736 151.244V156.122H307.858V151.244H312.736ZM312.736 146.366V151.244H307.858V146.366H312.736ZM312.736 141.488V146.366H307.858V141.488H312.736ZM312.736 136.61V141.488H307.858V136.61H312.736ZM312.736 131.732V136.61H307.858V131.732H312.736ZM312.736 126.854V131.732H307.858V126.854H312.736ZM273.712 156.122V161H268.834V156.122H273.712ZM278.59 156.122V161H273.712V156.122H278.59ZM283.468 156.122V161H278.59V156.122H283.468ZM288.346 156.122V161H283.468V156.122H288.346ZM298.102 156.122V161H293.224V156.122H298.102ZM302.98 156.122V161H298.102V156.122H302.98ZM302.98 151.244V156.122H298.102V151.244H302.98ZM298.102 151.244V156.122H293.224V151.244H298.102ZM288.346 151.244V156.122H283.468V151.244H288.346ZM283.468 151.244V156.122H278.59V151.244H283.468ZM278.59 151.244V156.122H273.712V151.244H278.59ZM273.712 151.244V156.122H268.834V151.244H273.712ZM273.712 146.366V151.244H268.834V146.366H273.712ZM278.59 146.366V151.244H273.712V146.366H278.59ZM283.468 146.366V151.244H278.59V146.366H283.468ZM288.346 146.366V151.244H283.468V146.366H288.346ZM298.102 146.366V151.244H293.224V146.366H298.102ZM302.98 146.366V151.244H298.102V146.366H302.98ZM302.98 141.488V146.366H298.102V141.488H302.98ZM298.102 141.488V146.366H293.224V141.488H298.102ZM288.346 141.488V146.366H283.468V141.488H288.346ZM283.468 141.488V146.366H278.59V141.488H283.468ZM278.59 141.488V146.366H273.712V141.488H278.59ZM273.712 141.488V146.366H268.834V141.488H273.712ZM273.712 136.61V141.488H268.834V136.61H273.712ZM302.98 136.61V141.488H298.102V136.61H302.98ZM322.492 63.439V58.561H327.37V63.439H322.492ZM322.492 68.3171V63.439H327.37V68.3171H322.492ZM322.492 73.1951V68.3171H327.37V73.1951H322.492ZM312.736 73.1951V68.3171H317.614V73.1951H312.736ZM312.736 68.3171V63.439H317.614V68.3171H312.736ZM312.736 63.439V58.561H317.614V63.439H312.736ZM312.736 58.561V53.6829H317.614V58.561H312.736ZM312.736 53.6829V48.8049H317.614V53.6829H312.736ZM312.736 48.8049V43.9268H317.614V48.8049H312.736ZM302.98 43.9268V39.0488H307.858V43.9268H302.98ZM302.98 48.8049V43.9268H307.858V48.8049H302.98ZM302.98 53.6829V48.8049H307.858V53.6829H302.98ZM302.98 58.561V53.6829H307.858V58.561H302.98ZM302.98 63.439V58.561H307.858V63.439H302.98ZM302.98 68.3171V63.439H307.858V68.3171H302.98ZM302.98 73.1951V68.3171H307.858V73.1951H302.98ZM307.858 73.1951V68.3171H312.736V73.1951H307.858ZM307.858 68.3171V63.439H312.736V68.3171H307.858ZM307.858 63.439V58.561H312.736V63.439H307.858ZM307.858 58.561V53.6829H312.736V58.561H307.858ZM307.858 53.6829V48.8049H312.736V53.6829H307.858ZM307.858 48.8049V43.9268H312.736V48.8049H307.858ZM317.614 53.6829V48.8049H322.492V53.6829H317.614ZM317.614 58.561V53.6829H322.492V58.561H317.614ZM317.614 63.439V58.561H322.492V63.439H317.614ZM317.614 68.3171V63.439H322.492V68.3171H317.614ZM317.614 73.1951V68.3171H322.492V73.1951H317.614ZM263.956 43.9268V39.0488H268.834V43.9268H263.956ZM263.956 48.8049V43.9268H268.834V48.8049H263.956ZM263.956 53.6829V48.8049H268.834V53.6829H263.956ZM263.956 58.561V53.6829H268.834V58.561H263.956ZM263.956 63.439V58.561H268.834V63.439H263.956ZM263.956 68.3171V63.439H268.834V68.3171H263.956ZM263.956 73.1951V68.3171H268.834V73.1951H263.956ZM254.2 73.1951V68.3171H259.078V73.1951H254.2ZM254.2 68.3171V63.439H259.078V68.3171H254.2ZM254.2 63.439V58.561H259.078V63.439H254.2ZM254.2 58.561V53.6829H259.078V58.561H254.2ZM254.2 53.6829V48.8049H259.078V53.6829H254.2ZM254.2 48.8049V43.9268H259.078V48.8049H254.2ZM244.444 63.439V58.561H249.322V63.439H244.444ZM244.444 68.3171V63.439H249.322V68.3171H244.444ZM244.444 73.1951V68.3171H249.322V73.1951H244.444ZM249.322 73.1951V68.3171H254.2V73.1951H249.322ZM249.322 68.3171V63.439H254.2V68.3171H249.322ZM249.322 63.439V58.561H254.2V63.439H249.322ZM249.322 58.561V53.6829H254.2V58.561H249.322ZM249.322 53.6829V48.8049H254.2V53.6829H249.322ZM259.078 48.8049V43.9268H263.956V48.8049H259.078ZM259.078 53.6829V48.8049H263.956V53.6829H259.078ZM259.078 58.561V53.6829H263.956V58.561H259.078ZM259.078 63.439V58.561H263.956V63.439H259.078ZM259.078 68.3171V63.439H263.956V68.3171H259.078ZM259.078 73.1951V68.3171H263.956V73.1951H259.078ZM298.102 43.9268V39.0488H302.98V43.9268H298.102ZM293.224 43.9268V39.0488H298.102V43.9268H293.224ZM283.468 43.9268V39.0488H288.346V43.9268H283.468ZM278.59 43.9268V39.0488H283.468V43.9268H278.59ZM273.712 43.9268V39.0488H278.59V43.9268H273.712ZM268.834 43.9268V39.0488H273.712V43.9268H268.834ZM268.834 48.8049V43.9268H273.712V48.8049H268.834ZM273.712 48.8049V43.9268H278.59V48.8049H273.712ZM278.59 48.8049V43.9268H283.468V48.8049H278.59ZM283.468 48.8049V43.9268H288.346V48.8049H283.468ZM293.224 48.8049V43.9268H298.102V48.8049H293.224ZM298.102 48.8049V43.9268H302.98V48.8049H298.102ZM298.102 53.6829V48.8049H302.98V53.6829H298.102ZM293.224 53.6829V48.8049H298.102V53.6829H293.224ZM283.468 53.6829V48.8049H288.346V53.6829H283.468ZM278.59 53.6829V48.8049H283.468V53.6829H278.59ZM273.712 53.6829V48.8049H278.59V53.6829H273.712ZM268.834 53.6829V48.8049H273.712V53.6829H268.834ZM268.834 58.561V53.6829H273.712V58.561H268.834ZM273.712 58.561V53.6829H278.59V58.561H273.712ZM278.59 58.561V53.6829H283.468V58.561H278.59ZM283.468 58.561V53.6829H288.346V58.561H283.468ZM293.224 58.561V53.6829H298.102V58.561H293.224ZM298.102 58.561V53.6829H302.98V58.561H298.102ZM298.102 63.439V58.561H302.98V63.439H298.102ZM268.834 63.439V58.561H273.712V63.439H268.834ZM249.322 78.0732V82.9512H244.444V78.0732H249.322ZM254.2 78.0732V82.9512H249.322V78.0732H254.2ZM249.322 73.1951V78.0732H244.444V73.1951H249.322ZM263.956 73.1951V78.0732H259.078V73.1951H263.956ZM263.956 78.0732V82.9512H259.078V78.0732H263.956ZM268.834 78.0732V82.9512H263.956V78.0732H268.834ZM268.834 73.1951V78.0732H263.956V73.1951H268.834ZM254.2 73.1951V78.0732H249.322V73.1951H254.2ZM259.078 73.1951V78.0732H254.2V73.1951H259.078ZM259.078 78.0732V82.9512H254.2V78.0732H259.078ZM288.346 92.7073V97.5854H283.468V92.7073H288.346ZM288.346 97.5854V102.463H283.468V97.5854H288.346ZM298.102 97.5854V102.463H293.224V97.5854H298.102ZM302.98 97.5854V102.463H298.102V97.5854H302.98ZM307.858 97.5854V102.463H302.98V97.5854H307.858ZM312.736 97.5854V102.463H307.858V97.5854H312.736ZM317.614 97.5854V102.463H312.736V97.5854H317.614ZM322.492 97.5854V102.463H317.614V97.5854H322.492ZM327.37 92.7073V97.5854H322.492V92.7073H327.37ZM322.492 92.7073V97.5854H317.614V92.7073H322.492ZM317.614 92.7073V97.5854H312.736V92.7073H317.614ZM312.736 92.7073V97.5854H307.858V92.7073H312.736ZM307.858 92.7073V97.5854H302.98V92.7073H307.858ZM302.98 92.7073V97.5854H298.102V92.7073H302.98ZM298.102 92.7073V97.5854H293.224V92.7073H298.102ZM327.37 97.5854V102.463H322.492V97.5854H327.37ZM327.37 102.463V107.341H322.492V102.463H327.37ZM327.37 107.341V112.22H322.492V107.341H327.37ZM327.37 112.22V117.098H322.492V112.22H327.37ZM327.37 117.098V121.976H322.492V117.098H327.37ZM327.37 121.976V126.854H322.492V121.976H327.37ZM322.492 121.976V126.854H317.614V121.976H322.492ZM317.614 121.976V126.854H312.736V121.976H317.614ZM312.736 121.976V126.854H307.858V121.976H312.736ZM307.858 121.976V126.854H302.98V121.976H307.858ZM307.858 117.098V121.976H302.98V117.098H307.858ZM312.736 117.098V121.976H307.858V117.098H312.736ZM317.614 117.098V121.976H312.736V117.098H317.614ZM322.492 117.098V121.976H317.614V117.098H322.492ZM322.492 112.22V117.098H317.614V112.22H322.492ZM317.614 112.22V117.098H312.736V112.22H317.614ZM312.736 112.22V117.098H307.858V112.22H312.736ZM307.858 112.22V117.098H302.98V112.22H307.858ZM288.346 102.463V107.341H283.468V102.463H288.346ZM288.346 107.341V112.22H283.468V107.341H288.346ZM298.102 107.341V112.22H293.224V107.341H298.102ZM302.98 107.341V112.22H298.102V107.341H302.98ZM307.858 107.341V112.22H302.98V107.341H307.858ZM312.736 107.341V112.22H307.858V107.341H312.736ZM317.614 107.341V112.22H312.736V107.341H317.614ZM322.492 107.341V112.22H317.614V107.341H322.492ZM322.492 102.463V107.341H317.614V102.463H322.492ZM317.614 102.463V107.341H312.736V102.463H317.614ZM312.736 102.463V107.341H307.858V102.463H312.736ZM307.858 102.463V107.341H302.98V102.463H307.858ZM302.98 102.463V107.341H298.102V102.463H302.98ZM298.102 102.463V107.341H293.224V102.463H298.102ZM278.59 136.61V141.488H273.712V136.61H278.59ZM283.468 136.61V141.488H278.59V136.61H283.468ZM288.346 136.61V141.488H283.468V136.61H288.346ZM298.102 136.61V141.488H293.224V136.61H298.102ZM302.98 131.732V136.61H298.102V131.732H302.98ZM273.712 131.732V136.61H268.834V131.732H273.712ZM278.59 58.561V63.439H273.712V58.561H278.59ZM283.468 58.561V63.439H278.59V58.561H283.468ZM288.346 58.561V63.439H283.468V58.561H288.346ZM298.102 58.561V63.439H293.224V58.561H298.102ZM273.712 63.439V68.3171H268.834V63.439H273.712ZM302.98 63.439V68.3171H298.102V63.439H302.98ZM307.858 73.1951V78.0732H302.98V73.1951H307.858ZM312.736 73.1951V78.0732H307.858V73.1951H312.736ZM317.614 73.1951V78.0732H312.736V73.1951H317.614ZM322.492 73.1951V78.0732H317.614V73.1951H322.492ZM327.37 73.1951V78.0732H322.492V73.1951H327.37ZM288.346 112.22V117.098H283.468V112.22H288.346ZM298.102 112.22V117.098H293.224V112.22H298.102ZM302.98 112.22V117.098H298.102V112.22H302.98ZM293.224 39.0488V43.9268H288.346V39.0488H293.224ZM293.224 43.9268V48.8049H288.346V43.9268H293.224ZM293.224 48.8049V53.6829H288.346V48.8049H293.224ZM293.224 53.6829V58.561H288.346V53.6829H293.224ZM293.224 58.561V63.439H288.346V58.561H293.224ZM293.224 92.7073V97.5854H288.346V92.7073H293.224ZM293.224 97.5854V102.463H288.346V97.5854H293.224ZM293.224 102.463V107.341H288.346V102.463H293.224ZM293.224 107.341V112.22H288.346V107.341H293.224ZM293.224 112.22V117.098H288.346V112.22H293.224ZM293.224 136.61V141.488H288.346V136.61H293.224ZM293.224 141.488V146.366H288.346V141.488H293.224ZM293.224 146.366V151.244H288.346V146.366H293.224ZM293.224 151.244V156.122H288.346V151.244H293.224ZM293.224 156.122V161H288.346V156.122H293.224Z" fill="#2F2F2F"/>
</g>
<defs>
<filter id="filter0_d_7_126" x="35.7559" y="39.0488" width="295.615" height="129.951" filterUnits="userSpaceOnUse" color-interpolation-filters="sRGB">
<feFlood flood-opacity="0" result="BackgroundImageFix"/>
<feColorMatrix in="SourceAlpha" type="matrix" values="0 0 0 0 0 0 0 0 0 0 0 0 0 0 0 0 0 0 127 0" result="hardAlpha"/>
<feOffset dy="4"/>
<feGaussianBlur stdDeviation="2"/>
<feComposite in2="hardAlpha" operator="out"/>
<feColorMatrix type="matrix" values="0 0 0 0 0 0 0 0 0 0 0 0 0 0 0 0 0 0 0.25 0"/>
<feBlend mode="normal" in2="BackgroundImageFix" result="effect1_dropShadow_7_126"/>
<feBlend mode="normal" in="SourceGraphic" in2="effect1_dropShadow_7_126" result="shape"/>
</filter>
</defs>
</svg>
