<svg width="288" height="122" viewBox="0 0 288 122" fill="none" xmlns="http://www.w3.org/2000/svg">
<path d="M4.87805 97.561V102.439H0V97.561H4.87805ZM4.87805 92.6829V97.561H0V92.6829H4.87805ZM4.87805 87.8049V92.6829H0V87.8049H4.87805ZM4.87805 82.9268V87.8049H0V82.9268H4.87805ZM4.87805 78.0488V82.9268H0V78.0488H4.87805ZM4.87805 73.1707V78.0488H0V73.1707H4.87805ZM4.87805 68.2927V73.1707H0V68.2927H4.87805ZM4.87805 63.4146V68.2927H0V63.4146H4.87805ZM4.87805 58.5366V63.4146H0V58.5366H4.87805ZM4.87805 53.6585V58.5366H0V53.6585H4.87805ZM4.87805 48.7805V53.6585H0V48.7805H4.87805ZM9.7561 48.7805V53.6585H4.87805V48.7805H9.7561ZM9.7561 53.6585V58.5366H4.87805V53.6585H9.7561ZM9.7561 58.5366V63.4146H4.87805V58.5366H9.7561ZM9.7561 63.4146V68.2927H4.87805V63.4146H9.7561ZM9.7561 68.2927V73.1707H4.87805V68.2927H9.7561ZM9.7561 73.1707V78.0488H4.87805V73.1707H9.7561ZM9.7561 78.0488V82.9268H4.87805V78.0488H9.7561ZM14.6341 82.9268V87.8049H9.7561V82.9268H14.6341ZM14.6341 87.8049V92.6829H9.7561V87.8049H14.6341ZM14.6341 92.6829V97.561H9.7561V92.6829H14.6341ZM14.6341 97.561V102.439H9.7561V97.561H14.6341ZM14.6341 102.439V107.317H9.7561V102.439H14.6341ZM14.6341 107.317V112.195H9.7561V107.317H14.6341ZM14.6341 112.195V117.073H9.7561V112.195H14.6341ZM24.3902 117.073V121.951H19.5122V117.073H24.3902ZM24.3902 112.195V117.073H19.5122V112.195H24.3902ZM24.3902 107.317V112.195H19.5122V107.317H24.3902ZM24.3902 102.439V107.317H19.5122V102.439H24.3902ZM24.3902 97.561V102.439H19.5122V97.561H24.3902ZM24.3902 92.6829V97.561H19.5122V92.6829H24.3902ZM24.3902 87.8049V92.6829H19.5122V87.8049H24.3902ZM24.3902 82.9268V87.8049H19.5122V82.9268H24.3902ZM19.5122 82.9268V87.8049H14.6341V82.9268H19.5122ZM19.5122 78.0488V82.9268H14.6341V78.0488H19.5122ZM19.5122 87.8049V92.6829H14.6341V87.8049H19.5122ZM19.5122 92.6829V97.561H14.6341V92.6829H19.5122ZM19.5122 97.561V102.439H14.6341V97.561H19.5122ZM19.5122 102.439V107.317H14.6341V102.439H19.5122ZM19.5122 107.317V112.195H14.6341V107.317H19.5122ZM19.5122 112.195V117.073H14.6341V112.195H19.5122ZM9.7561 107.317V112.195H4.87805V107.317H9.7561ZM9.7561 102.439V107.317H4.87805V102.439H9.7561ZM9.7561 97.561V102.439H4.87805V97.561H9.7561ZM9.7561 92.6829V97.561H4.87805V92.6829H9.7561ZM9.7561 87.8049V92.6829H4.87805V87.8049H9.7561ZM9.7561 82.9268V87.8049H4.87805V82.9268H9.7561ZM4.87805 43.9024V48.7805H0V43.9024H4.87805ZM19.5122 43.9024V48.7805H14.6341V43.9024H19.5122ZM19.5122 48.7805V53.6585H14.6341V48.7805H19.5122ZM19.5122 53.6585V58.5366H14.6341V53.6585H19.5122ZM19.5122 58.5366V63.4146H14.6341V58.5366H19.5122ZM19.5122 63.4146V68.2927H14.6341V63.4146H19.5122ZM24.3902 68.2927V73.1707H19.5122V68.2927H24.3902ZM24.3902 73.1707V78.0488H19.5122V73.1707H24.3902ZM24.3902 78.0488V82.9268H19.5122V78.0488H24.3902ZM24.3902 63.4146V68.2927H19.5122V63.4146H24.3902ZM24.3902 58.5366V63.4146H19.5122V58.5366H24.3902ZM24.3902 53.6585V58.5366H19.5122V53.6585H24.3902ZM24.3902 48.7805V53.6585H19.5122V48.7805H24.3902ZM24.3902 43.9024V48.7805H19.5122V43.9024H24.3902ZM9.7561 43.9024V48.7805H4.87805V43.9024H9.7561ZM14.6341 43.9024V48.7805H9.7561V43.9024H14.6341ZM14.6341 48.7805V53.6585H9.7561V48.7805H14.6341ZM14.6341 53.6585V58.5366H9.7561V53.6585H14.6341ZM14.6341 58.5366V63.4146H9.7561V58.5366H14.6341ZM14.6341 63.4146V68.2927H9.7561V63.4146H14.6341ZM14.6341 68.2927V73.1707H9.7561V68.2927H14.6341ZM14.6341 73.1707V78.0488H9.7561V73.1707H14.6341ZM14.6341 78.0488V82.9268H9.7561V78.0488H14.6341ZM19.5122 73.1707V78.0488H14.6341V73.1707H19.5122ZM19.5122 68.2927V73.1707H14.6341V68.2927H19.5122ZM63.4146 117.073V121.951H58.5366V117.073H63.4146ZM63.4146 112.195V117.073H58.5366V112.195H63.4146ZM63.4146 107.317V112.195H58.5366V107.317H63.4146ZM63.4146 102.439V107.317H58.5366V102.439H63.4146ZM63.4146 97.561V102.439H58.5366V97.561H63.4146ZM63.4146 92.6829V97.561H58.5366V92.6829H63.4146ZM63.4146 87.8049V92.6829H58.5366V87.8049H63.4146ZM73.1707 87.8049V92.6829H68.2927V87.8049H73.1707ZM73.1707 92.6829V97.561H68.2927V92.6829H73.1707ZM73.1707 97.561V102.439H68.2927V97.561H73.1707ZM73.1707 102.439V107.317H68.2927V102.439H73.1707ZM73.1707 107.317V112.195H68.2927V107.317H73.1707ZM73.1707 112.195V117.073H68.2927V112.195H73.1707ZM82.9268 97.561V102.439H78.0488V97.561H82.9268ZM82.9268 92.6829V97.561H78.0488V92.6829H82.9268ZM82.9268 87.8049V92.6829H78.0488V87.8049H82.9268ZM78.0488 87.8049V92.6829H73.1707V87.8049H78.0488ZM78.0488 92.6829V97.561H73.1707V92.6829H78.0488ZM78.0488 97.561V102.439H73.1707V97.561H78.0488ZM78.0488 102.439V107.317H73.1707V102.439H78.0488ZM78.0488 107.317V112.195H73.1707V107.317H78.0488ZM68.2927 112.195V117.073H63.4146V112.195H68.2927ZM68.2927 107.317V112.195H63.4146V107.317H68.2927ZM68.2927 102.439V107.317H63.4146V102.439H68.2927ZM68.2927 97.561V102.439H63.4146V97.561H68.2927ZM68.2927 92.6829V97.561H63.4146V92.6829H68.2927ZM68.2927 87.8049V92.6829H63.4146V87.8049H68.2927ZM29.2683 117.073V121.951H24.3902V117.073H29.2683ZM34.1463 117.073V121.951H29.2683V117.073H34.1463ZM39.0244 117.073V121.951H34.1463V117.073H39.0244ZM43.9024 117.073V121.951H39.0244V117.073H43.9024ZM48.7805 117.073V121.951H43.9024V117.073H48.7805ZM58.5366 117.073V121.951H53.6585V117.073H58.5366ZM58.5366 112.195V117.073H53.6585V112.195H58.5366ZM48.7805 112.195V117.073H43.9024V112.195H48.7805ZM43.9024 112.195V117.073H39.0244V112.195H43.9024ZM39.0244 112.195V117.073H34.1463V112.195H39.0244ZM34.1463 112.195V117.073H29.2683V112.195H34.1463ZM29.2683 112.195V117.073H24.3902V112.195H29.2683ZM29.2683 107.317V112.195H24.3902V107.317H29.2683ZM34.1463 107.317V112.195H29.2683V107.317H34.1463ZM39.0244 107.317V112.195H34.1463V107.317H39.0244ZM43.9024 107.317V112.195H39.0244V107.317H43.9024ZM48.7805 107.317V112.195H43.9024V107.317H48.7805ZM58.5366 107.317V112.195H53.6585V107.317H58.5366ZM58.5366 102.439V107.317H53.6585V102.439H58.5366ZM48.7805 102.439V107.317H43.9024V102.439H48.7805ZM43.9024 102.439V107.317H39.0244V102.439H43.9024ZM39.0244 102.439V107.317H34.1463V102.439H39.0244ZM34.1463 102.439V107.317H29.2683V102.439H34.1463ZM29.2683 102.439V107.317H24.3902V102.439H29.2683ZM29.2683 97.561V102.439H24.3902V97.561H29.2683ZM58.5366 97.561V102.439H53.6585V97.561H58.5366ZM78.0488 24.3902V19.5122H82.9268V24.3902H78.0488ZM78.0488 29.2683V24.3902H82.9268V29.2683H78.0488ZM78.0488 34.1463V29.2683H82.9268V34.1463H78.0488ZM68.2927 34.1463V29.2683H73.1707V34.1463H68.2927ZM68.2927 29.2683V24.3902H73.1707V29.2683H68.2927ZM68.2927 24.3902V19.5122H73.1707V24.3902H68.2927ZM68.2927 19.5122V14.6341H73.1707V19.5122H68.2927ZM68.2927 14.6341V9.7561H73.1707V14.6341H68.2927ZM68.2927 9.7561V4.87805H73.1707V9.7561H68.2927ZM58.5366 4.87805V0H63.4146V4.87805H58.5366ZM58.5366 9.7561V4.87805H63.4146V9.7561H58.5366ZM58.5366 14.6341V9.7561H63.4146V14.6341H58.5366ZM58.5366 19.5122V14.6341H63.4146V19.5122H58.5366ZM58.5366 24.3902V19.5122H63.4146V24.3902H58.5366ZM58.5366 29.2683V24.3902H63.4146V29.2683H58.5366ZM58.5366 34.1463V29.2683H63.4146V34.1463H58.5366ZM63.4146 34.1463V29.2683H68.2927V34.1463H63.4146ZM63.4146 29.2683V24.3902H68.2927V29.2683H63.4146ZM63.4146 24.3902V19.5122H68.2927V24.3902H63.4146ZM63.4146 19.5122V14.6341H68.2927V19.5122H63.4146ZM63.4146 14.6341V9.7561H68.2927V14.6341H63.4146ZM63.4146 9.7561V4.87805H68.2927V9.7561H63.4146ZM73.1707 14.6341V9.7561H78.0488V14.6341H73.1707ZM73.1707 19.5122V14.6341H78.0488V19.5122H73.1707ZM73.1707 24.3902V19.5122H78.0488V24.3902H73.1707ZM73.1707 29.2683V24.3902H78.0488V29.2683H73.1707ZM73.1707 34.1463V29.2683H78.0488V34.1463H73.1707ZM19.5122 4.87805V0H24.3902V4.87805H19.5122ZM19.5122 9.7561V4.87805H24.3902V9.7561H19.5122ZM19.5122 14.6341V9.7561H24.3902V14.6341H19.5122ZM19.5122 19.5122V14.6341H24.3902V19.5122H19.5122ZM19.5122 24.3902V19.5122H24.3902V24.3902H19.5122ZM19.5122 29.2683V24.3902H24.3902V29.2683H19.5122ZM19.5122 34.1463V29.2683H24.3902V34.1463H19.5122ZM9.7561 34.1463V29.2683H14.6341V34.1463H9.7561ZM9.7561 29.2683V24.3902H14.6341V29.2683H9.7561ZM9.7561 24.3902V19.5122H14.6341V24.3902H9.7561ZM9.7561 19.5122V14.6341H14.6341V19.5122H9.7561ZM9.7561 14.6341V9.7561H14.6341V14.6341H9.7561ZM9.7561 9.7561V4.87805H14.6341V9.7561H9.7561ZM0 24.3902V19.5122H4.87805V24.3902H0ZM0 29.2683V24.3902H4.87805V29.2683H0ZM0 34.1463V29.2683H4.87805V34.1463H0ZM4.87805 34.1463V29.2683H9.7561V34.1463H4.87805ZM4.87805 29.2683V24.3902H9.7561V29.2683H4.87805ZM4.87805 24.3902V19.5122H9.7561V24.3902H4.87805ZM4.87805 19.5122V14.6341H9.7561V19.5122H4.87805ZM4.87805 14.6341V9.7561H9.7561V14.6341H4.87805ZM14.6341 9.7561V4.87805H19.5122V9.7561H14.6341ZM14.6341 14.6341V9.7561H19.5122V14.6341H14.6341ZM14.6341 19.5122V14.6341H19.5122V19.5122H14.6341ZM14.6341 24.3902V19.5122H19.5122V24.3902H14.6341ZM14.6341 29.2683V24.3902H19.5122V29.2683H14.6341ZM14.6341 34.1463V29.2683H19.5122V34.1463H14.6341ZM53.6585 4.87805V0H58.5366V4.87805H53.6585ZM43.9024 4.87805V0H48.7805V4.87805H43.9024ZM39.0244 4.87805V0H43.9024V4.87805H39.0244ZM34.1463 4.87805V0H39.0244V4.87805H34.1463ZM29.2683 4.87805V0H34.1463V4.87805H29.2683ZM24.3902 4.87805V0H29.2683V4.87805H24.3902ZM24.3902 9.7561V4.87805H29.2683V9.7561H24.3902ZM29.2683 9.7561V4.87805H34.1463V9.7561H29.2683ZM34.1463 9.7561V4.87805H39.0244V9.7561H34.1463ZM39.0244 9.7561V4.87805H43.9024V9.7561H39.0244ZM43.9024 9.7561V4.87805H48.7805V9.7561H43.9024ZM53.6585 9.7561V4.87805H58.5366V9.7561H53.6585ZM53.6585 14.6341V9.7561H58.5366V14.6341H53.6585ZM43.9024 14.6341V9.7561H48.7805V14.6341H43.9024ZM39.0244 14.6341V9.7561H43.9024V14.6341H39.0244ZM34.1463 14.6341V9.7561H39.0244V14.6341H34.1463ZM29.2683 14.6341V9.7561H34.1463V14.6341H29.2683ZM24.3902 14.6341V9.7561H29.2683V14.6341H24.3902ZM24.3902 19.5122V14.6341H29.2683V19.5122H24.3902ZM29.2683 19.5122V14.6341H34.1463V19.5122H29.2683ZM34.1463 19.5122V14.6341H39.0244V19.5122H34.1463ZM39.0244 19.5122V14.6341H43.9024V19.5122H39.0244ZM43.9024 19.5122V14.6341H48.7805V19.5122H43.9024ZM53.6585 19.5122V14.6341H58.5366V19.5122H53.6585ZM53.6585 24.3902V19.5122H58.5366V24.3902H53.6585ZM24.3902 24.3902V19.5122H29.2683V24.3902H24.3902ZM4.87805 39.0244V43.9024H0V39.0244H4.87805ZM9.7561 39.0244V43.9024H4.87805V39.0244H9.7561ZM4.87805 34.1463V39.0244H0V34.1463H4.87805ZM19.5122 34.1463V39.0244H14.6341V34.1463H19.5122ZM19.5122 39.0244V43.9024H14.6341V39.0244H19.5122ZM24.3902 39.0244V43.9024H19.5122V39.0244H24.3902ZM24.3902 34.1463V39.0244H19.5122V34.1463H24.3902ZM9.7561 34.1463V39.0244H4.87805V34.1463H9.7561ZM14.6341 34.1463V39.0244H9.7561V34.1463H14.6341ZM14.6341 39.0244V43.9024H9.7561V39.0244H14.6341ZM34.1463 97.561V102.439H29.2683V97.561H34.1463ZM39.0244 97.561V102.439H34.1463V97.561H39.0244ZM43.9024 97.561V102.439H39.0244V97.561H43.9024ZM48.7805 97.561V102.439H43.9024V97.561H48.7805ZM58.5366 92.6829V97.561H53.6585V92.6829H58.5366ZM29.2683 92.6829V97.561H24.3902V92.6829H29.2683ZM63.4146 82.9268V87.8049H58.5366V82.9268H63.4146ZM68.2927 82.9268V87.8049H63.4146V82.9268H68.2927ZM73.1707 82.9268V87.8049H68.2927V82.9268H73.1707ZM78.0488 82.9268V87.8049H73.1707V82.9268H78.0488ZM82.9268 82.9268V87.8049H78.0488V82.9268H82.9268ZM29.2683 24.3902V29.2683H24.3902V24.3902H29.2683ZM34.1463 19.5122V24.3902H29.2683V19.5122H34.1463ZM39.0244 19.5122V24.3902H34.1463V19.5122H39.0244ZM43.9024 19.5122V24.3902H39.0244V19.5122H43.9024ZM48.7805 19.5122V24.3902H43.9024V19.5122H48.7805ZM58.5366 24.3902V29.2683H53.6585V24.3902H58.5366ZM63.4146 34.1463V39.0244H58.5366V34.1463H63.4146ZM68.2927 34.1463V39.0244H63.4146V34.1463H68.2927ZM73.1707 34.1463V39.0244H68.2927V34.1463H73.1707ZM78.0488 34.1463V39.0244H73.1707V34.1463H78.0488ZM82.9268 34.1463V39.0244H78.0488V34.1463H82.9268ZM53.6585 0V4.87805H48.7805V0H53.6585ZM53.6585 4.87805V9.7561H48.7805V4.87805H53.6585ZM53.6585 9.7561V14.6341H48.7805V9.7561H53.6585ZM53.6585 14.6341V19.5122H48.7805V14.6341H53.6585ZM53.6585 19.5122V24.3902H48.7805V19.5122H53.6585ZM53.6585 97.561V102.439H48.7805V97.561H53.6585ZM53.6585 102.439V107.317H48.7805V102.439H53.6585ZM53.6585 107.317V112.195H48.7805V107.317H53.6585ZM53.6585 112.195V117.073H48.7805V112.195H53.6585ZM53.6585 117.073V121.951H48.7805V117.073H53.6585ZM107.222 97.561V102.439H102.344V97.561H107.222ZM107.222 92.6829V97.561H102.344V92.6829H107.222ZM107.222 87.8049V92.6829H102.344V87.8049H107.222ZM107.222 82.9268V87.8049H102.344V82.9268H107.222ZM107.222 48.7805V53.6585H102.344V48.7805H107.222ZM112.1 48.7805V53.6585H107.222V48.7805H112.1ZM112.1 53.6585V58.5366H107.222V53.6585H112.1ZM112.1 58.5366V63.4146H107.222V58.5366H112.1ZM116.978 82.9268V87.8049H112.1V82.9268H116.978ZM116.978 87.8049V92.6829H112.1V87.8049H116.978ZM116.978 92.6829V97.561H112.1V92.6829H116.978ZM116.978 97.561V102.439H112.1V97.561H116.978ZM116.978 102.439V107.317H112.1V102.439H116.978ZM116.978 107.317V112.195H112.1V107.317H116.978ZM116.978 112.195V117.073H112.1V112.195H116.978ZM126.734 117.073V121.951H121.856V117.073H126.734ZM126.734 112.195V117.073H121.856V112.195H126.734ZM126.734 107.317V112.195H121.856V107.317H126.734ZM126.734 102.439V107.317H121.856V102.439H126.734ZM126.734 97.561V102.439H121.856V97.561H126.734ZM126.734 92.6829V97.561H121.856V92.6829H126.734ZM126.734 87.8049V92.6829H121.856V87.8049H126.734ZM126.734 82.9268V87.8049H121.856V82.9268H126.734ZM121.856 82.9268V87.8049H116.978V82.9268H121.856ZM121.856 87.8049V92.6829H116.978V87.8049H121.856ZM121.856 92.6829V97.561H116.978V92.6829H121.856ZM121.856 97.561V102.439H116.978V97.561H121.856ZM121.856 102.439V107.317H116.978V102.439H121.856ZM121.856 107.317V112.195H116.978V107.317H121.856ZM121.856 112.195V117.073H116.978V112.195H121.856ZM112.1 107.317V112.195H107.222V107.317H112.1ZM112.1 102.439V107.317H107.222V102.439H112.1ZM112.1 97.561V102.439H107.222V97.561H112.1ZM112.1 92.6829V97.561H107.222V92.6829H112.1ZM112.1 87.8049V92.6829H107.222V87.8049H112.1ZM112.1 82.9268V87.8049H107.222V82.9268H112.1ZM107.222 43.9024V48.7805H102.344V43.9024H107.222ZM121.856 43.9024V48.7805H116.978V43.9024H121.856ZM121.856 48.7805V53.6585H116.978V48.7805H121.856ZM121.856 53.6585V58.5366H116.978V53.6585H121.856ZM121.856 58.5366V63.4146H116.978V58.5366H121.856ZM121.856 63.4146V68.2927H116.978V63.4146H121.856ZM126.734 68.2927V73.1707H121.856V68.2927H126.734ZM126.734 63.4146V68.2927H121.856V63.4146H126.734ZM126.734 58.5366V63.4146H121.856V58.5366H126.734ZM126.734 53.6585V58.5366H121.856V53.6585H126.734ZM126.734 48.7805V53.6585H121.856V48.7805H126.734ZM126.734 43.9024V48.7805H121.856V43.9024H126.734ZM112.1 43.9024V48.7805H107.222V43.9024H112.1ZM116.978 43.9024V48.7805H112.1V43.9024H116.978ZM116.978 48.7805V53.6585H112.1V48.7805H116.978ZM116.978 53.6585V58.5366H112.1V53.6585H116.978ZM116.978 58.5366V63.4146H112.1V58.5366H116.978ZM116.978 63.4146V68.2927H112.1V63.4146H116.978ZM165.758 117.073V121.951H160.88V117.073H165.758ZM165.758 112.195V117.073H160.88V112.195H165.758ZM165.758 107.317V112.195H160.88V107.317H165.758ZM165.758 102.439V107.317H160.88V102.439H165.758ZM165.758 97.561V102.439H160.88V97.561H165.758ZM165.758 92.6829V97.561H160.88V92.6829H165.758ZM165.758 87.8049V92.6829H160.88V87.8049H165.758ZM165.758 82.9268V87.8049H160.88V82.9268H165.758ZM165.758 78.0488V82.9268H160.88V78.0488H165.758ZM165.758 73.1707V78.0488H160.88V73.1707H165.758ZM165.758 68.2927V73.1707H160.88V68.2927H165.758ZM165.758 63.4146V68.2927H160.88V63.4146H165.758ZM165.758 58.5366V63.4146H160.88V58.5366H165.758ZM165.758 53.6585V58.5366H160.88V53.6585H165.758ZM165.758 48.7805V53.6585H160.88V48.7805H165.758ZM170.637 53.6585V58.5366H165.758V53.6585H170.637ZM170.637 58.5366V63.4146H165.758V58.5366H170.637ZM170.637 63.4146V68.2927H165.758V63.4146H170.637ZM170.637 68.2927V73.1707H165.758V68.2927H170.637ZM170.637 73.1707V78.0488H165.758V73.1707H170.637ZM170.637 78.0488V82.9268H165.758V78.0488H170.637ZM175.515 82.9268V87.8049H170.637V82.9268H175.515ZM175.515 87.8049V92.6829H170.637V87.8049H175.515ZM175.515 92.6829V97.561H170.637V92.6829H175.515ZM175.515 97.561V102.439H170.637V97.561H175.515ZM175.515 102.439V107.317H170.637V102.439H175.515ZM175.515 107.317V112.195H170.637V107.317H175.515ZM175.515 112.195V117.073H170.637V112.195H175.515ZM185.271 97.561V102.439H180.393V97.561H185.271ZM185.271 92.6829V97.561H180.393V92.6829H185.271ZM185.271 87.8049V92.6829H180.393V87.8049H185.271ZM185.271 82.9268V87.8049H180.393V82.9268H185.271ZM180.393 82.9268V87.8049H175.515V82.9268H180.393ZM180.393 78.0488V82.9268H175.515V78.0488H180.393ZM180.393 87.8049V92.6829H175.515V87.8049H180.393ZM180.393 92.6829V97.561H175.515V92.6829H180.393ZM180.393 97.561V102.439H175.515V97.561H180.393ZM180.393 102.439V107.317H175.515V102.439H180.393ZM180.393 107.317V112.195H175.515V107.317H180.393ZM170.637 112.195V117.073H165.758V112.195H170.637ZM170.637 107.317V112.195H165.758V107.317H170.637ZM170.637 102.439V107.317H165.758V102.439H170.637ZM170.637 97.561V102.439H165.758V97.561H170.637ZM170.637 92.6829V97.561H165.758V92.6829H170.637ZM170.637 87.8049V92.6829H165.758V87.8049H170.637ZM170.637 82.9268V87.8049H165.758V82.9268H170.637ZM180.393 63.4146V68.2927H175.515V63.4146H180.393ZM185.271 68.2927V73.1707H180.393V68.2927H185.271ZM185.271 73.1707V78.0488H180.393V73.1707H185.271ZM185.271 78.0488V82.9268H180.393V78.0488H185.271ZM175.515 53.6585V58.5366H170.637V53.6585H175.515ZM175.515 58.5366V63.4146H170.637V58.5366H175.515ZM175.515 63.4146V68.2927H170.637V63.4146H175.515ZM175.515 68.2927V73.1707H170.637V68.2927H175.515ZM175.515 73.1707V78.0488H170.637V73.1707H175.515ZM175.515 78.0488V82.9268H170.637V78.0488H175.515ZM180.393 73.1707V78.0488H175.515V73.1707H180.393ZM180.393 68.2927V73.1707H175.515V68.2927H180.393ZM131.612 117.073V121.951H126.734V117.073H131.612ZM136.49 117.073V121.951H131.612V117.073H136.49ZM141.368 117.073V121.951H136.49V117.073H141.368ZM151.124 117.073V121.951H146.246V117.073H151.124ZM156.002 117.073V121.951H151.124V117.073H156.002ZM160.88 117.073V121.951H156.002V117.073H160.88ZM160.88 112.195V117.073H156.002V112.195H160.88ZM156.002 112.195V117.073H151.124V112.195H156.002ZM151.124 112.195V117.073H146.246V112.195H151.124ZM141.368 112.195V117.073H136.49V112.195H141.368ZM136.49 112.195V117.073H131.612V112.195H136.49ZM131.612 112.195V117.073H126.734V112.195H131.612ZM131.612 107.317V112.195H126.734V107.317H131.612ZM136.49 107.317V112.195H131.612V107.317H136.49ZM141.368 107.317V112.195H136.49V107.317H141.368ZM151.124 107.317V112.195H146.246V107.317H151.124ZM156.002 107.317V112.195H151.124V107.317H156.002ZM160.88 107.317V112.195H156.002V107.317H160.88ZM160.88 102.439V107.317H156.002V102.439H160.88ZM156.002 102.439V107.317H151.124V102.439H156.002ZM151.124 102.439V107.317H146.246V102.439H151.124ZM141.368 102.439V107.317H136.49V102.439H141.368ZM136.49 102.439V107.317H131.612V102.439H136.49ZM131.612 102.439V107.317H126.734V102.439H131.612ZM131.612 97.561V102.439H126.734V97.561H131.612ZM160.88 97.561V102.439H156.002V97.561H160.88ZM180.393 24.3902V19.5122H185.271V24.3902H180.393ZM180.393 29.2683V24.3902H185.271V29.2683H180.393ZM180.393 34.1463V29.2683H185.271V34.1463H180.393ZM170.637 34.1463V29.2683H175.515V34.1463H170.637ZM170.637 29.2683V24.3902H175.515V29.2683H170.637ZM170.637 24.3902V19.5122H175.515V24.3902H170.637ZM170.637 19.5122V14.6341H175.515V19.5122H170.637ZM170.637 14.6341V9.7561H175.515V14.6341H170.637ZM170.637 9.7561V4.87805H175.515V9.7561H170.637ZM160.88 4.87805V0H165.758V4.87805H160.88ZM160.88 9.7561V4.87805H165.758V9.7561H160.88ZM160.88 14.6341V9.7561H165.758V14.6341H160.88ZM160.88 19.5122V14.6341H165.758V19.5122H160.88ZM160.88 24.3902V19.5122H165.758V24.3902H160.88ZM160.88 29.2683V24.3902H165.758V29.2683H160.88ZM160.88 34.1463V29.2683H165.758V34.1463H160.88ZM165.758 34.1463V29.2683H170.637V34.1463H165.758ZM165.758 29.2683V24.3902H170.637V29.2683H165.758ZM165.758 24.3902V19.5122H170.637V24.3902H165.758ZM165.758 19.5122V14.6341H170.637V19.5122H165.758ZM165.758 14.6341V9.7561H170.637V14.6341H165.758ZM165.758 9.7561V4.87805H170.637V9.7561H165.758ZM175.515 14.6341V9.7561H180.393V14.6341H175.515ZM175.515 19.5122V14.6341H180.393V19.5122H175.515ZM175.515 24.3902V19.5122H180.393V24.3902H175.515ZM175.515 29.2683V24.3902H180.393V29.2683H175.515ZM175.515 34.1463V29.2683H180.393V34.1463H175.515ZM121.856 4.87805V0H126.734V4.87805H121.856ZM121.856 9.7561V4.87805H126.734V9.7561H121.856ZM121.856 14.6341V9.7561H126.734V14.6341H121.856ZM121.856 19.5122V14.6341H126.734V19.5122H121.856ZM121.856 24.3902V19.5122H126.734V24.3902H121.856ZM121.856 29.2683V24.3902H126.734V29.2683H121.856ZM121.856 34.1463V29.2683H126.734V34.1463H121.856ZM112.1 34.1463V29.2683H116.978V34.1463H112.1ZM112.1 29.2683V24.3902H116.978V29.2683H112.1ZM112.1 24.3902V19.5122H116.978V24.3902H112.1ZM112.1 19.5122V14.6341H116.978V19.5122H112.1ZM112.1 14.6341V9.7561H116.978V14.6341H112.1ZM112.1 9.7561V4.87805H116.978V9.7561H112.1ZM102.344 24.3902V19.5122H107.222V24.3902H102.344ZM102.344 29.2683V24.3902H107.222V29.2683H102.344ZM102.344 34.1463V29.2683H107.222V34.1463H102.344ZM107.222 34.1463V29.2683H112.1V34.1463H107.222ZM107.222 29.2683V24.3902H112.1V29.2683H107.222ZM107.222 24.3902V19.5122H112.1V24.3902H107.222ZM107.222 19.5122V14.6341H112.1V19.5122H107.222ZM107.222 14.6341V9.7561H112.1V14.6341H107.222ZM116.978 9.7561V4.87805H121.856V9.7561H116.978ZM116.978 14.6341V9.7561H121.856V14.6341H116.978ZM116.978 19.5122V14.6341H121.856V19.5122H116.978ZM116.978 24.3902V19.5122H121.856V24.3902H116.978ZM116.978 29.2683V24.3902H121.856V29.2683H116.978ZM116.978 34.1463V29.2683H121.856V34.1463H116.978ZM156.002 4.87805V0H160.88V4.87805H156.002ZM151.124 4.87805V0H156.002V4.87805H151.124ZM146.246 4.87805V0H151.124V4.87805H146.246ZM136.49 4.87805V0H141.368V4.87805H136.49ZM131.612 4.87805V0H136.49V4.87805H131.612ZM126.734 4.87805V0H131.612V4.87805H126.734ZM126.734 9.7561V4.87805H131.612V9.7561H126.734ZM131.612 9.7561V4.87805H136.49V9.7561H131.612ZM136.49 9.7561V4.87805H141.368V9.7561H136.49ZM146.246 9.7561V4.87805H151.124V9.7561H146.246ZM151.124 9.7561V4.87805H156.002V9.7561H151.124ZM156.002 9.7561V4.87805H160.88V9.7561H156.002ZM156.002 14.6341V9.7561H160.88V14.6341H156.002ZM151.124 14.6341V9.7561H156.002V14.6341H151.124ZM146.246 14.6341V9.7561H151.124V14.6341H146.246ZM136.49 14.6341V9.7561H141.368V14.6341H136.49ZM131.612 14.6341V9.7561H136.49V14.6341H131.612ZM126.734 14.6341V9.7561H131.612V14.6341H126.734ZM126.734 19.5122V14.6341H131.612V19.5122H126.734ZM131.612 19.5122V14.6341H136.49V19.5122H131.612ZM136.49 19.5122V14.6341H141.368V19.5122H136.49ZM146.246 19.5122V14.6341H151.124V19.5122H146.246ZM151.124 19.5122V14.6341H156.002V19.5122H151.124ZM156.002 19.5122V14.6341H160.88V19.5122H156.002ZM156.002 24.3902V19.5122H160.88V24.3902H156.002ZM126.734 24.3902V19.5122H131.612V24.3902H126.734ZM107.222 39.0244V43.9024H102.344V39.0244H107.222ZM112.1 39.0244V43.9024H107.222V39.0244H112.1ZM107.222 34.1463V39.0244H102.344V34.1463H107.222ZM121.856 34.1463V39.0244H116.978V34.1463H121.856ZM121.856 39.0244V43.9024H116.978V39.0244H121.856ZM126.734 39.0244V43.9024H121.856V39.0244H126.734ZM126.734 34.1463V39.0244H121.856V34.1463H126.734ZM112.1 34.1463V39.0244H107.222V34.1463H112.1ZM116.978 34.1463V39.0244H112.1V34.1463H116.978ZM116.978 39.0244V43.9024H112.1V39.0244H116.978ZM136.49 97.561V102.439H131.612V97.561H136.49ZM141.368 97.561V102.439H136.49V97.561H141.368ZM151.124 97.561V102.439H146.246V97.561H151.124ZM156.002 97.561V102.439H151.124V97.561H156.002ZM160.88 92.6829V97.561H156.002V92.6829H160.88ZM131.612 92.6829V97.561H126.734V92.6829H131.612ZM136.49 19.5122V24.3902H131.612V19.5122H136.49ZM141.368 19.5122V24.3902H136.49V19.5122H141.368ZM151.124 19.5122V24.3902H146.246V19.5122H151.124ZM156.002 19.5122V24.3902H151.124V19.5122H156.002ZM160.88 24.3902V29.2683H156.002V24.3902H160.88ZM131.612 24.3902V29.2683H126.734V24.3902H131.612ZM141.368 58.5366V63.4146H136.49V58.5366H141.368ZM151.124 58.5366V63.4146H146.246V58.5366H151.124ZM156.002 58.5366V63.4146H151.124V58.5366H156.002ZM160.88 58.5366V63.4146H156.002V58.5366H160.88ZM160.88 63.4146V68.2927H156.002V63.4146H160.88ZM156.002 63.4146V68.2927H151.124V63.4146H156.002ZM151.124 63.4146V68.2927H146.246V63.4146H151.124ZM141.368 63.4146V68.2927H136.49V63.4146H141.368ZM141.368 48.7805V53.6585H136.49V48.7805H141.368ZM151.124 48.7805V53.6585H146.246V48.7805H151.124ZM156.002 48.7805V53.6585H151.124V48.7805H156.002ZM160.88 48.7805V53.6585H156.002V48.7805H160.88ZM160.88 53.6585V58.5366H156.002V53.6585H160.88ZM156.002 53.6585V58.5366H151.124V53.6585H156.002ZM151.124 53.6585V58.5366H146.246V53.6585H151.124ZM141.368 53.6585V58.5366H136.49V53.6585H141.368ZM141.368 68.2927V73.1707H136.49V68.2927H141.368ZM151.124 68.2927V73.1707H146.246V68.2927H151.124ZM156.002 68.2927V73.1707H151.124V68.2927H156.002ZM160.88 68.2927V73.1707H156.002V68.2927H160.88ZM180.393 58.5366V63.4146H175.515V58.5366H180.393ZM160.88 73.1707V78.0488H156.002V73.1707H160.88ZM131.612 48.7805V53.6585H126.734V48.7805H131.612ZM136.49 48.7805V53.6585H131.612V48.7805H136.49ZM131.612 43.9024V48.7805H126.734V43.9024H131.612ZM136.49 53.6585V58.5366H131.612V53.6585H136.49ZM136.49 58.5366V63.4146H131.612V58.5366H136.49ZM136.49 63.4146V68.2927H131.612V63.4146H136.49ZM136.49 68.2927V73.1707H131.612V68.2927H136.49ZM131.612 68.2927V73.1707H126.734V68.2927H131.612ZM131.612 63.4146V68.2927H126.734V63.4146H131.612ZM131.612 58.5366V63.4146H126.734V58.5366H131.612ZM131.612 53.6585V58.5366H126.734V53.6585H131.612ZM146.246 0V4.87805H141.368V0H146.246ZM146.246 4.87805V9.7561H141.368V4.87805H146.246ZM146.246 9.7561V14.6341H141.368V9.7561H146.246ZM146.246 14.6341V19.5122H141.368V14.6341H146.246ZM146.246 19.5122V24.3902H141.368V19.5122H146.246ZM146.246 48.7805V53.6585H141.368V48.7805H146.246ZM146.246 53.6585V58.5366H141.368V53.6585H146.246ZM146.246 58.5366V63.4146H141.368V58.5366H146.246ZM146.246 63.4146V68.2927H141.368V63.4146H146.246ZM146.246 68.2927V73.1707H141.368V68.2927H146.246ZM146.246 97.561V102.439H141.368V97.561H146.246ZM146.246 102.439V107.317H141.368V102.439H146.246ZM146.246 107.317V112.195H141.368V107.317H146.246ZM146.246 112.195V117.073H141.368V112.195H146.246ZM146.246 117.073V121.951H141.368V117.073H146.246ZM209.566 97.561V102.439H204.688V97.561H209.566ZM209.566 92.6829V97.561H204.688V92.6829H209.566ZM209.566 87.8049V92.6829H204.688V87.8049H209.566ZM209.566 82.9268V87.8049H204.688V82.9268H209.566ZM209.566 78.0488V82.9268H204.688V78.0488H209.566ZM209.566 73.1707V78.0488H204.688V73.1707H209.566ZM209.566 68.2927V73.1707H204.688V68.2927H209.566ZM209.566 63.4146V68.2927H204.688V63.4146H209.566ZM209.566 58.5366V63.4146H204.688V58.5366H209.566ZM209.566 53.6585V58.5366H204.688V53.6585H209.566ZM209.566 48.7805V53.6585H204.688V48.7805H209.566ZM214.444 48.7805V53.6585H209.566V48.7805H214.444ZM214.444 53.6585V58.5366H209.566V53.6585H214.444ZM214.444 58.5366V63.4146H209.566V58.5366H214.444ZM214.444 63.4146V68.2927H209.566V63.4146H214.444ZM214.444 68.2927V73.1707H209.566V68.2927H214.444ZM214.444 73.1707V78.0488H209.566V73.1707H214.444ZM214.444 78.0488V82.9268H209.566V78.0488H214.444ZM219.322 82.9268V87.8049H214.444V82.9268H219.322ZM219.322 87.8049V92.6829H214.444V87.8049H219.322ZM219.322 92.6829V97.561H214.444V92.6829H219.322ZM219.322 97.561V102.439H214.444V97.561H219.322ZM219.322 102.439V107.317H214.444V102.439H219.322ZM219.322 107.317V112.195H214.444V107.317H219.322ZM219.322 112.195V117.073H214.444V112.195H219.322ZM229.078 117.073V121.951H224.2V117.073H229.078ZM229.078 112.195V117.073H224.2V112.195H229.078ZM229.078 107.317V112.195H224.2V107.317H229.078ZM229.078 102.439V107.317H224.2V102.439H229.078ZM229.078 97.561V102.439H224.2V97.561H229.078ZM229.078 92.6829V97.561H224.2V92.6829H229.078ZM229.078 87.8049V92.6829H224.2V87.8049H229.078ZM229.078 82.9268V87.8049H224.2V82.9268H229.078ZM224.2 82.9268V87.8049H219.322V82.9268H224.2ZM224.2 78.0488V82.9268H219.322V78.0488H224.2ZM224.2 87.8049V92.6829H219.322V87.8049H224.2ZM224.2 92.6829V97.561H219.322V92.6829H224.2ZM224.2 97.561V102.439H219.322V97.561H224.2ZM224.2 102.439V107.317H219.322V102.439H224.2ZM224.2 107.317V112.195H219.322V107.317H224.2ZM224.2 112.195V117.073H219.322V112.195H224.2ZM214.444 107.317V112.195H209.566V107.317H214.444ZM214.444 102.439V107.317H209.566V102.439H214.444ZM214.444 97.561V102.439H209.566V97.561H214.444ZM214.444 92.6829V97.561H209.566V92.6829H214.444ZM214.444 87.8049V92.6829H209.566V87.8049H214.444ZM214.444 82.9268V87.8049H209.566V82.9268H214.444ZM209.566 43.9024V48.7805H204.688V43.9024H209.566ZM224.2 43.9024V48.7805H219.322V43.9024H224.2ZM224.2 48.7805V53.6585H219.322V48.7805H224.2ZM224.2 53.6585V58.5366H219.322V53.6585H224.2ZM224.2 58.5366V63.4146H219.322V58.5366H224.2ZM224.2 63.4146V68.2927H219.322V63.4146H224.2ZM229.078 68.2927V73.1707H224.2V68.2927H229.078ZM229.078 73.1707V78.0488H224.2V73.1707H229.078ZM229.078 78.0488V82.9268H224.2V78.0488H229.078ZM229.078 63.4146V68.2927H224.2V63.4146H229.078ZM229.078 58.5366V63.4146H224.2V58.5366H229.078ZM229.078 53.6585V58.5366H224.2V53.6585H229.078ZM229.078 48.7805V53.6585H224.2V48.7805H229.078ZM229.078 43.9024V48.7805H224.2V43.9024H229.078ZM214.444 43.9024V48.7805H209.566V43.9024H214.444ZM219.322 43.9024V48.7805H214.444V43.9024H219.322ZM219.322 48.7805V53.6585H214.444V48.7805H219.322ZM219.322 53.6585V58.5366H214.444V53.6585H219.322ZM219.322 58.5366V63.4146H214.444V58.5366H219.322ZM219.322 63.4146V68.2927H214.444V63.4146H219.322ZM219.322 68.2927V73.1707H214.444V68.2927H219.322ZM219.322 73.1707V78.0488H214.444V73.1707H219.322ZM219.322 78.0488V82.9268H214.444V78.0488H219.322ZM224.2 73.1707V78.0488H219.322V73.1707H224.2ZM224.2 68.2927V73.1707H219.322V68.2927H224.2ZM268.102 117.073V121.951H263.224V117.073H268.102ZM268.102 112.195V117.073H263.224V112.195H268.102ZM268.102 107.317V112.195H263.224V107.317H268.102ZM268.102 102.439V107.317H263.224V102.439H268.102ZM268.102 97.561V102.439H263.224V97.561H268.102ZM268.102 92.6829V97.561H263.224V92.6829H268.102ZM268.102 87.8049V92.6829H263.224V87.8049H268.102ZM277.858 87.8049V92.6829H272.98V87.8049H277.858ZM277.858 92.6829V97.561H272.98V92.6829H277.858ZM277.858 97.561V102.439H272.98V97.561H277.858ZM277.858 102.439V107.317H272.98V102.439H277.858ZM277.858 107.317V112.195H272.98V107.317H277.858ZM277.858 112.195V117.073H272.98V112.195H277.858ZM287.614 97.561V102.439H282.736V97.561H287.614ZM287.614 92.6829V97.561H282.736V92.6829H287.614ZM287.614 87.8049V92.6829H282.736V87.8049H287.614ZM282.736 87.8049V92.6829H277.858V87.8049H282.736ZM282.736 92.6829V97.561H277.858V92.6829H282.736ZM282.736 97.561V102.439H277.858V97.561H282.736ZM282.736 102.439V107.317H277.858V102.439H282.736ZM282.736 107.317V112.195H277.858V107.317H282.736ZM272.98 112.195V117.073H268.102V112.195H272.98ZM272.98 107.317V112.195H268.102V107.317H272.98ZM272.98 102.439V107.317H268.102V102.439H272.98ZM272.98 97.561V102.439H268.102V97.561H272.98ZM272.98 92.6829V97.561H268.102V92.6829H272.98ZM272.98 87.8049V92.6829H268.102V87.8049H272.98ZM233.956 117.073V121.951H229.078V117.073H233.956ZM238.834 117.073V121.951H233.956V117.073H238.834ZM243.712 117.073V121.951H238.834V117.073H243.712ZM248.59 117.073V121.951H243.712V117.073H248.59ZM258.346 117.073V121.951H253.468V117.073H258.346ZM263.224 117.073V121.951H258.346V117.073H263.224ZM263.224 112.195V117.073H258.346V112.195H263.224ZM258.346 112.195V117.073H253.468V112.195H258.346ZM248.59 112.195V117.073H243.712V112.195H248.59ZM243.712 112.195V117.073H238.834V112.195H243.712ZM238.834 112.195V117.073H233.956V112.195H238.834ZM233.956 112.195V117.073H229.078V112.195H233.956ZM233.956 107.317V112.195H229.078V107.317H233.956ZM238.834 107.317V112.195H233.956V107.317H238.834ZM243.712 107.317V112.195H238.834V107.317H243.712ZM248.59 107.317V112.195H243.712V107.317H248.59ZM258.346 107.317V112.195H253.468V107.317H258.346ZM263.224 107.317V112.195H258.346V107.317H263.224ZM263.224 102.439V107.317H258.346V102.439H263.224ZM258.346 102.439V107.317H253.468V102.439H258.346ZM248.59 102.439V107.317H243.712V102.439H248.59ZM243.712 102.439V107.317H238.834V102.439H243.712ZM238.834 102.439V107.317H233.956V102.439H238.834ZM233.956 102.439V107.317H229.078V102.439H233.956ZM233.956 97.561V102.439H229.078V97.561H233.956ZM263.224 97.561V102.439H258.346V97.561H263.224ZM282.736 24.3902V19.5122H287.614V24.3902H282.736ZM282.736 29.2683V24.3902H287.614V29.2683H282.736ZM282.736 34.1463V29.2683H287.614V34.1463H282.736ZM272.98 34.1463V29.2683H277.858V34.1463H272.98ZM272.98 29.2683V24.3902H277.858V29.2683H272.98ZM272.98 24.3902V19.5122H277.858V24.3902H272.98ZM272.98 19.5122V14.6341H277.858V19.5122H272.98ZM272.98 14.6341V9.7561H277.858V14.6341H272.98ZM272.98 9.7561V4.87805H277.858V9.7561H272.98ZM263.224 4.87805V0H268.102V4.87805H263.224ZM263.224 9.7561V4.87805H268.102V9.7561H263.224ZM263.224 14.6341V9.7561H268.102V14.6341H263.224ZM263.224 19.5122V14.6341H268.102V19.5122H263.224ZM263.224 24.3902V19.5122H268.102V24.3902H263.224ZM263.224 29.2683V24.3902H268.102V29.2683H263.224ZM263.224 34.1463V29.2683H268.102V34.1463H263.224ZM268.102 34.1463V29.2683H272.98V34.1463H268.102ZM268.102 29.2683V24.3902H272.98V29.2683H268.102ZM268.102 24.3902V19.5122H272.98V24.3902H268.102ZM268.102 19.5122V14.6341H272.98V19.5122H268.102ZM268.102 14.6341V9.7561H272.98V14.6341H268.102ZM268.102 9.7561V4.87805H272.98V9.7561H268.102ZM277.858 14.6341V9.7561H282.736V14.6341H277.858ZM277.858 19.5122V14.6341H282.736V19.5122H277.858ZM277.858 24.3902V19.5122H282.736V24.3902H277.858ZM277.858 29.2683V24.3902H282.736V29.2683H277.858ZM277.858 34.1463V29.2683H282.736V34.1463H277.858ZM224.2 4.87805V0H229.078V4.87805H224.2ZM224.2 9.7561V4.87805H229.078V9.7561H224.2ZM224.2 14.6341V9.7561H229.078V14.6341H224.2ZM224.2 19.5122V14.6341H229.078V19.5122H224.2ZM224.2 24.3902V19.5122H229.078V24.3902H224.2ZM224.2 29.2683V24.3902H229.078V29.2683H224.2ZM224.2 34.1463V29.2683H229.078V34.1463H224.2ZM214.444 34.1463V29.2683H219.322V34.1463H214.444ZM214.444 29.2683V24.3902H219.322V29.2683H214.444ZM214.444 24.3902V19.5122H219.322V24.3902H214.444ZM214.444 19.5122V14.6341H219.322V19.5122H214.444ZM214.444 14.6341V9.7561H219.322V14.6341H214.444ZM214.444 9.7561V4.87805H219.322V9.7561H214.444ZM204.688 24.3902V19.5122H209.566V24.3902H204.688ZM204.688 29.2683V24.3902H209.566V29.2683H204.688ZM204.688 34.1463V29.2683H209.566V34.1463H204.688ZM209.566 34.1463V29.2683H214.444V34.1463H209.566ZM209.566 29.2683V24.3902H214.444V29.2683H209.566ZM209.566 24.3902V19.5122H214.444V24.3902H209.566ZM209.566 19.5122V14.6341H214.444V19.5122H209.566ZM209.566 14.6341V9.7561H214.444V14.6341H209.566ZM219.322 9.7561V4.87805H224.2V9.7561H219.322ZM219.322 14.6341V9.7561H224.2V14.6341H219.322ZM219.322 19.5122V14.6341H224.2V19.5122H219.322ZM219.322 24.3902V19.5122H224.2V24.3902H219.322ZM219.322 29.2683V24.3902H224.2V29.2683H219.322ZM219.322 34.1463V29.2683H224.2V34.1463H219.322ZM258.346 4.87805V0H263.224V4.87805H258.346ZM253.468 4.87805V0H258.346V4.87805H253.468ZM243.712 4.87805V0H248.59V4.87805H243.712ZM238.834 4.87805V0H243.712V4.87805H238.834ZM233.956 4.87805V0H238.834V4.87805H233.956ZM229.078 4.87805V0H233.956V4.87805H229.078ZM229.078 9.7561V4.87805H233.956V9.7561H229.078ZM233.956 9.7561V4.87805H238.834V9.7561H233.956ZM238.834 9.7561V4.87805H243.712V9.7561H238.834ZM243.712 9.7561V4.87805H248.59V9.7561H243.712ZM253.468 9.7561V4.87805H258.346V9.7561H253.468ZM258.346 9.7561V4.87805H263.224V9.7561H258.346ZM258.346 14.6341V9.7561H263.224V14.6341H258.346ZM253.468 14.6341V9.7561H258.346V14.6341H253.468ZM243.712 14.6341V9.7561H248.59V14.6341H243.712ZM238.834 14.6341V9.7561H243.712V14.6341H238.834ZM233.956 14.6341V9.7561H238.834V14.6341H233.956ZM229.078 14.6341V9.7561H233.956V14.6341H229.078ZM229.078 19.5122V14.6341H233.956V19.5122H229.078ZM233.956 19.5122V14.6341H238.834V19.5122H233.956ZM238.834 19.5122V14.6341H243.712V19.5122H238.834ZM243.712 19.5122V14.6341H248.59V19.5122H243.712ZM253.468 19.5122V14.6341H258.346V19.5122H253.468ZM258.346 19.5122V14.6341H263.224V19.5122H258.346ZM258.346 24.3902V19.5122H263.224V24.3902H258.346ZM229.078 24.3902V19.5122H233.956V24.3902H229.078ZM209.566 39.0244V43.9024H204.688V39.0244H209.566ZM214.444 39.0244V43.9024H209.566V39.0244H214.444ZM209.566 34.1463V39.0244H204.688V34.1463H209.566ZM224.2 34.1463V39.0244H219.322V34.1463H224.2ZM224.2 39.0244V43.9024H219.322V39.0244H224.2ZM229.078 39.0244V43.9024H224.2V39.0244H229.078ZM229.078 34.1463V39.0244H224.2V34.1463H229.078ZM214.444 34.1463V39.0244H209.566V34.1463H214.444ZM219.322 34.1463V39.0244H214.444V34.1463H219.322ZM219.322 39.0244V43.9024H214.444V39.0244H219.322ZM248.59 53.6585V58.5366H243.712V53.6585H248.59ZM248.59 58.5366V63.4146H243.712V58.5366H248.59ZM258.346 58.5366V63.4146H253.468V58.5366H258.346ZM263.224 58.5366V63.4146H258.346V58.5366H263.224ZM268.102 58.5366V63.4146H263.224V58.5366H268.102ZM272.98 58.5366V63.4146H268.102V58.5366H272.98ZM277.858 58.5366V63.4146H272.98V58.5366H277.858ZM282.736 58.5366V63.4146H277.858V58.5366H282.736ZM287.614 53.6585V58.5366H282.736V53.6585H287.614ZM282.736 53.6585V58.5366H277.858V53.6585H282.736ZM277.858 53.6585V58.5366H272.98V53.6585H277.858ZM272.98 53.6585V58.5366H268.102V53.6585H272.98ZM268.102 53.6585V58.5366H263.224V53.6585H268.102ZM263.224 53.6585V58.5366H258.346V53.6585H263.224ZM258.346 53.6585V58.5366H253.468V53.6585H258.346ZM287.614 58.5366V63.4146H282.736V58.5366H287.614ZM287.614 63.4146V68.2927H282.736V63.4146H287.614ZM287.614 68.2927V73.1707H282.736V68.2927H287.614ZM287.614 73.1707V78.0488H282.736V73.1707H287.614ZM287.614 78.0488V82.9268H282.736V78.0488H287.614ZM287.614 82.9268V87.8049H282.736V82.9268H287.614ZM282.736 82.9268V87.8049H277.858V82.9268H282.736ZM277.858 82.9268V87.8049H272.98V82.9268H277.858ZM272.98 82.9268V87.8049H268.102V82.9268H272.98ZM268.102 82.9268V87.8049H263.224V82.9268H268.102ZM268.102 78.0488V82.9268H263.224V78.0488H268.102ZM272.98 78.0488V82.9268H268.102V78.0488H272.98ZM277.858 78.0488V82.9268H272.98V78.0488H277.858ZM282.736 78.0488V82.9268H277.858V78.0488H282.736ZM282.736 73.1707V78.0488H277.858V73.1707H282.736ZM277.858 73.1707V78.0488H272.98V73.1707H277.858ZM272.98 73.1707V78.0488H268.102V73.1707H272.98ZM268.102 73.1707V78.0488H263.224V73.1707H268.102ZM248.59 63.4146V68.2927H243.712V63.4146H248.59ZM248.59 68.2927V73.1707H243.712V68.2927H248.59ZM258.346 68.2927V73.1707H253.468V68.2927H258.346ZM263.224 68.2927V73.1707H258.346V68.2927H263.224ZM268.102 68.2927V73.1707H263.224V68.2927H268.102ZM272.98 68.2927V73.1707H268.102V68.2927H272.98ZM277.858 68.2927V73.1707H272.98V68.2927H277.858ZM282.736 68.2927V73.1707H277.858V68.2927H282.736ZM282.736 63.4146V68.2927H277.858V63.4146H282.736ZM277.858 63.4146V68.2927H272.98V63.4146H277.858ZM272.98 63.4146V68.2927H268.102V63.4146H272.98ZM268.102 63.4146V68.2927H263.224V63.4146H268.102ZM263.224 63.4146V68.2927H258.346V63.4146H263.224ZM258.346 63.4146V68.2927H253.468V63.4146H258.346ZM238.834 97.561V102.439H233.956V97.561H238.834ZM243.712 97.561V102.439H238.834V97.561H243.712ZM248.59 97.561V102.439H243.712V97.561H248.59ZM258.346 97.561V102.439H253.468V97.561H258.346ZM263.224 92.6829V97.561H258.346V92.6829H263.224ZM233.956 92.6829V97.561H229.078V92.6829H233.956ZM238.834 19.5122V24.3902H233.956V19.5122H238.834ZM243.712 19.5122V24.3902H238.834V19.5122H243.712ZM248.59 19.5122V24.3902H243.712V19.5122H248.59ZM258.346 19.5122V24.3902H253.468V19.5122H258.346ZM233.956 24.3902V29.2683H229.078V24.3902H233.956ZM263.224 24.3902V29.2683H258.346V24.3902H263.224ZM268.102 34.1463V39.0244H263.224V34.1463H268.102ZM272.98 34.1463V39.0244H268.102V34.1463H272.98ZM277.858 34.1463V39.0244H272.98V34.1463H277.858ZM282.736 34.1463V39.0244H277.858V34.1463H282.736ZM287.614 34.1463V39.0244H282.736V34.1463H287.614ZM248.59 73.1707V78.0488H243.712V73.1707H248.59ZM258.346 73.1707V78.0488H253.468V73.1707H258.346ZM263.224 73.1707V78.0488H258.346V73.1707H263.224ZM253.468 0V4.87805H248.59V0H253.468ZM253.468 4.87805V9.7561H248.59V4.87805H253.468ZM253.468 9.7561V14.6341H248.59V9.7561H253.468ZM253.468 14.6341V19.5122H248.59V14.6341H253.468ZM253.468 19.5122V24.3902H248.59V19.5122H253.468ZM253.468 53.6585V58.5366H248.59V53.6585H253.468ZM253.468 58.5366V63.4146H248.59V58.5366H253.468ZM253.468 63.4146V68.2927H248.59V63.4146H253.468ZM253.468 68.2927V73.1707H248.59V68.2927H253.468ZM253.468 73.1707V78.0488H248.59V73.1707H253.468ZM253.468 97.561V102.439H248.59V97.561H253.468ZM253.468 102.439V107.317H248.59V102.439H253.468ZM253.468 107.317V112.195H248.59V107.317H253.468ZM253.468 112.195V117.073H248.59V112.195H253.468ZM253.468 117.073V121.951H248.59V117.073H253.468Z" fill="#2F2F2F"/>
</svg>
